<?xml version="1.0" encoding="UTF-8"?>
<!DOCTYPE svg PUBLIC "-//W3C//DTD SVG 1.1//EN" "http://www.w3.org/Graphics/SVG/1.1/DTD/svg11.dtd">
<svg xmlns="http://www.w3.org/2000/svg" version="1.1" width="1024px" height="1024px" style="shape-rendering:geometricPrecision; text-rendering:geometricPrecision; image-rendering:optimizeQuality; fill-rule:evenodd; clip-rule:evenodd" xmlns:xlink="http://www.w3.org/1999/xlink">
<g><path style="opacity:1" fill="#fefefe" d="M -0.5,-0.5 C 340.833,-0.5 682.167,-0.5 1023.5,-0.5C 1023.5,340.833 1023.5,682.167 1023.5,1023.5C 682.167,1023.5 340.833,1023.5 -0.5,1023.5C -0.5,682.167 -0.5,340.833 -0.5,-0.5 Z"/></g>
<g><path style="opacity:1" fill="#f0efef" d="M 667.5,300.5 C 658.827,300.334 650.16,300.5 641.5,301C 635.527,301.82 629.861,303.32 624.5,305.5C 609.925,308.46 596.592,314.126 584.5,322.5C 578.273,325.73 572.607,329.73 567.5,334.5C 552.697,344.967 540.697,357.967 531.5,373.5C 522.219,369.866 512.553,368.532 502.5,369.5C 504.893,368.79 507.393,368.123 510,367.5C 510.333,364.167 510.667,360.833 511,357.5C 511.006,319.356 511.673,281.356 513,243.5C 512.905,284.992 512.739,326.659 512.5,368.5C 515.247,368.813 517.914,368.48 520.5,367.5C 551.431,312.369 598.431,286.535 661.5,290C 665.561,290.629 669.228,292.129 672.5,294.5C 663.421,296.003 654.421,297.503 645.5,299C 653.011,299.171 660.345,299.671 667.5,300.5 Z"/></g>
<g><path style="opacity:1" fill="#f0f0ef" d="M 361.5,293.5 C 409.371,292.354 447.871,310.687 477,348.5C 477.982,349.759 478.315,351.092 478,352.5C 452.568,329.698 423.402,313.532 390.5,304C 381.929,302.084 373.262,300.751 364.5,300C 362.549,298.266 361.549,296.099 361.5,293.5 Z"/></g>
<g><path style="opacity:1" fill="#62477d" d="M 667.5,300.5 C 669.735,300.205 671.735,300.539 673.5,301.5C 667.167,301.5 660.833,301.5 654.5,301.5C 654.167,301.5 653.833,301.5 653.5,301.5C 643.855,302.828 634.188,304.161 624.5,305.5C 629.861,303.32 635.527,301.82 641.5,301C 650.16,300.5 658.827,300.334 667.5,300.5 Z"/></g>
<g><path style="opacity:1" fill="#4f2d74" d="M 653.5,301.5 C 653.827,321.743 653.493,341.909 652.5,362C 656.045,362.571 659.378,361.904 662.5,360C 659.808,359.57 657.141,359.737 654.5,360.5C 654.5,340.833 654.5,321.167 654.5,301.5C 660.833,301.5 667.167,301.5 673.5,301.5C 678.635,301.292 683.635,301.959 688.5,303.5C 688.389,304.117 688.056,304.617 687.5,305C 690.834,305.789 694.001,306.956 697,308.5C 697.725,307.941 698.558,307.608 699.5,307.5C 714.217,312.393 725.883,321.226 734.5,334C 734.167,334.333 733.833,334.667 733.5,335C 736.253,341.93 735.919,348.763 732.5,355.5C 732.481,357.106 732.647,358.772 733,360.5C 731.853,361.458 730.853,361.125 730,359.5C 729.439,360.022 728.772,360.355 728,360.5C 723.215,359.181 718.382,358.181 713.5,357.5C 694.146,355.447 675.48,358.28 657.5,366C 652.288,367.625 646.955,368.625 641.5,369C 638.043,371.961 634.377,374.461 630.5,376.5C 629.5,376.833 628.833,377.5 628.5,378.5C 625.533,378.989 622.867,380.155 620.5,382C 615.294,386.711 609.961,391.211 604.5,395.5C 597.498,399.658 591.498,405.158 586.5,412C 584.527,412.495 582.527,412.662 580.5,412.5C 579.876,410.246 578.543,408.579 576.5,407.5C 576.573,405.973 575.906,404.973 574.5,404.5C 572.833,402.5 571.167,400.5 569.5,398.5C 569.553,394.862 567.887,392.862 564.5,392.5C 564.241,388.932 562.241,387.599 558.5,388.5C 557.5,388.167 556.833,387.5 556.5,386.5C 554.773,381.948 551.439,379.448 546.5,379C 545.288,377.893 545.621,377.393 547.5,377.5C 553.502,378.835 558.835,381.501 563.5,385.5C 564.086,385.291 564.586,384.957 565,384.5C 566.665,386.036 568.832,387.703 571.5,389.5C 574.028,388.502 574.028,387.669 571.5,387C 572.126,386.25 572.626,385.416 573,384.5C 574.264,384.64 575.431,384.64 576.5,384.5C 575.359,383.575 575.359,382.741 576.5,382C 575.833,381.667 575.167,381.333 574.5,381C 576.5,380.667 578.5,380.333 580.5,380C 579.638,377.266 578.805,377.099 578,379.5C 576.697,378.888 575.53,378.554 574.5,378.5C 576.272,377.73 577.272,376.397 577.5,374.5C 576.722,371.197 576.889,367.863 578,364.5C 578.186,366.9 578.686,369.234 579.5,371.5C 581.764,370.696 583.764,371.363 585.5,373.5C 586.228,371.807 587.228,370.307 588.5,369C 588.167,368.667 587.833,368.333 587.5,368C 589.519,367.55 591.352,366.717 593,365.5C 592.383,367.095 592.716,368.428 594,369.5C 594.043,366.783 595.043,366.116 597,367.5C 599.464,366.839 601.964,366.339 604.5,366C 602.324,365.837 600.491,365.004 599,363.5C 597.869,364.604 597.035,364.271 596.5,362.5C 597.167,362.167 597.833,361.833 598.5,361.5C 597.975,360.808 597.308,360.308 596.5,360C 598.167,359.667 599.833,359.333 601.5,359C 600.112,358.111 600.278,357.611 602,357.5C 602.106,358.794 603.106,359.461 605,359.5C 607.698,359.141 610.532,358.974 613.5,359C 612.167,358.667 610.833,358.333 609.5,358C 611.503,356.181 612.836,354.015 613.5,351.5C 612.127,351.657 610.793,351.49 609.5,351C 612.458,350.771 614.958,349.604 617,347.5C 620,347.833 621.667,349.5 622,352.5C 623.095,349.063 623.595,345.73 623.5,342.5C 623.911,343.262 624.077,344.262 624,345.5C 625.324,344.12 626.657,343.786 628,344.5C 628.333,343.5 628.667,342.5 629,341.5C 629.718,342.451 630.551,342.617 631.5,342C 628.565,341.753 625.565,341.087 622.5,340C 626.421,339.797 630.255,339.297 634,338.5C 634.333,339.833 634.667,341.167 635,342.5C 636.813,342.253 638.647,341.92 640.5,341.5C 641.309,339.208 641.643,337.041 641.5,335C 639.559,334.257 637.726,334.424 636,335.5C 635.316,331.853 636.649,330.853 640,332.5C 640.945,332.095 641.612,331.428 642,330.5C 642.498,333.482 642.665,336.482 642.5,339.5C 647.794,339.682 647.794,340.182 642.5,341C 644.329,341.273 645.829,342.107 647,343.5C 648.74,342.284 649.74,340.618 650,338.5C 650.333,339.167 650.667,339.833 651,340.5C 651.667,339.167 651.667,337.833 651,336.5C 650.111,337.888 649.611,337.722 649.5,336C 650.022,335.05 650.689,334.216 651.5,333.5C 651.219,325.517 651.219,317.184 651.5,308.5C 650.448,308.649 649.448,308.483 648.5,308C 649.731,306.817 649.731,305.651 648.5,304.5C 645.568,303.938 642.735,304.604 640,306.5C 638.286,305.075 636.953,305.408 636,307.5C 635.586,307.043 635.086,306.709 634.5,306.5C 627.849,308.661 621.183,310.494 614.5,312C 612.064,312.93 609.731,314.097 607.5,315.5C 605.2,315.132 603.033,315.132 601,315.5C 599.833,316.667 598.667,317.833 597.5,319C 593.343,320.661 589.01,321.827 584.5,322.5C 596.592,314.126 609.925,308.46 624.5,305.5C 634.188,304.161 643.855,302.828 653.5,301.5 Z"/></g>
<g><path style="opacity:1" fill="#522c74" d="M 547.5,377.5 C 544.06,374.184 540.06,373.018 535.5,374C 537.775,370.367 539.775,366.534 541.5,362.5C 546.211,358.755 550.711,354.755 555,350.5C 559.038,344.974 563.205,339.641 567.5,334.5C 572.607,329.73 578.273,325.73 584.5,322.5C 589.01,321.827 593.343,320.661 597.5,319C 598.667,317.833 599.833,316.667 601,315.5C 603.033,315.132 605.2,315.132 607.5,315.5C 609.731,314.097 612.064,312.93 614.5,312C 621.183,310.494 627.849,308.661 634.5,306.5C 635.086,306.709 635.586,307.043 636,307.5C 636.953,305.408 638.286,305.075 640,306.5C 642.735,304.604 645.568,303.938 648.5,304.5C 649.731,305.651 649.731,306.817 648.5,308C 649.448,308.483 650.448,308.649 651.5,308.5C 651.219,317.184 651.219,325.517 651.5,333.5C 650.689,334.216 650.022,335.05 649.5,336C 649.611,337.722 650.111,337.888 651,336.5C 651.667,337.833 651.667,339.167 651,340.5C 650.667,339.833 650.333,339.167 650,338.5C 649.74,340.618 648.74,342.284 647,343.5C 645.829,342.107 644.329,341.273 642.5,341C 647.794,340.182 647.794,339.682 642.5,339.5C 642.665,336.482 642.498,333.482 642,330.5C 641.612,331.428 640.945,332.095 640,332.5C 636.649,330.853 635.316,331.853 636,335.5C 637.726,334.424 639.559,334.257 641.5,335C 641.643,337.041 641.309,339.208 640.5,341.5C 638.647,341.92 636.813,342.253 635,342.5C 634.667,341.167 634.333,339.833 634,338.5C 630.255,339.297 626.421,339.797 622.5,340C 625.565,341.087 628.565,341.753 631.5,342C 630.551,342.617 629.718,342.451 629,341.5C 628.667,342.5 628.333,343.5 628,344.5C 626.657,343.786 625.324,344.12 624,345.5C 624.077,344.262 623.911,343.262 623.5,342.5C 623.595,345.73 623.095,349.063 622,352.5C 621.667,349.5 620,347.833 617,347.5C 614.958,349.604 612.458,350.771 609.5,351C 610.793,351.49 612.127,351.657 613.5,351.5C 612.836,354.015 611.503,356.181 609.5,358C 610.833,358.333 612.167,358.667 613.5,359C 610.532,358.974 607.698,359.141 605,359.5C 603.106,359.461 602.106,358.794 602,357.5C 600.278,357.611 600.112,358.111 601.5,359C 599.833,359.333 598.167,359.667 596.5,360C 597.308,360.308 597.975,360.808 598.5,361.5C 597.833,361.833 597.167,362.167 596.5,362.5C 597.035,364.271 597.869,364.604 599,363.5C 600.491,365.004 602.324,365.837 604.5,366C 601.964,366.339 599.464,366.839 597,367.5C 595.043,366.116 594.043,366.783 594,369.5C 592.716,368.428 592.383,367.095 593,365.5C 591.352,366.717 589.519,367.55 587.5,368C 587.833,368.333 588.167,368.667 588.5,369C 587.228,370.307 586.228,371.807 585.5,373.5C 583.764,371.363 581.764,370.696 579.5,371.5C 578.686,369.234 578.186,366.9 578,364.5C 576.889,367.863 576.722,371.197 577.5,374.5C 577.272,376.397 576.272,377.73 574.5,378.5C 575.53,378.554 576.697,378.888 578,379.5C 578.805,377.099 579.638,377.266 580.5,380C 578.5,380.333 576.5,380.667 574.5,381C 575.167,381.333 575.833,381.667 576.5,382C 575.359,382.741 575.359,383.575 576.5,384.5C 575.431,384.64 574.264,384.64 573,384.5C 572.626,385.416 572.126,386.25 571.5,387C 574.028,387.669 574.028,388.502 571.5,389.5C 568.832,387.703 566.665,386.036 565,384.5C 564.586,384.957 564.086,385.291 563.5,385.5C 558.835,381.501 553.502,378.835 547.5,377.5 Z"/></g>
<g><path style="opacity:1" fill="#beb5c6" d="M 365.5,312.5 C 365.5,312.167 365.5,311.833 365.5,311.5C 369.817,311.083 373.817,311.75 377.5,313.5C 373.534,312.838 369.534,312.505 365.5,312.5 Z"/></g>
<g><path style="opacity:1" fill="#69537d" d="M 365.5,311.5 C 365.5,311.833 365.5,312.167 365.5,312.5C 354.484,312.417 343.484,312.751 332.5,313.5C 333.952,312.698 335.618,312.198 337.5,312C 346.827,311.5 356.161,311.334 365.5,311.5 Z"/></g>
<g><path style="opacity:1" fill="#502e74" d="M 365.5,312.5 C 365.5,330.5 365.5,348.5 365.5,366.5C 349.45,366.337 333.45,367.17 317.5,369C 309.418,370.854 301.418,373.021 293.5,375.5C 288.843,376.496 284.176,377.496 279.5,378.5C 275.105,378.607 272.772,376.44 272.5,372C 273.127,370.262 273.46,368.429 273.5,366.5C 273.387,364.359 272.72,362.525 271.5,361C 271.415,355.865 271.415,350.698 271.5,345.5C 274.077,342.515 276.744,339.515 279.5,336.5C 294.943,324.008 312.61,316.342 332.5,313.5C 343.484,312.751 354.484,312.417 365.5,312.5 Z"/></g>
<g><path style="opacity:1" fill="#522c74" d="M 350.5,313.5 C 354.846,313.334 359.179,313.501 363.5,314C 361.343,315.085 361.176,316.251 363,317.5C 363.288,320.53 363.455,323.364 363.5,326C 362.5,327 361.5,328 360.5,329C 361.167,329.333 361.833,329.667 362.5,330C 361.773,331.399 361.273,332.899 361,334.5C 357.643,335.742 357.81,336.576 361.5,337C 358.456,337.359 358.122,338.026 360.5,339C 359.044,339.423 358.544,340.256 359,341.5C 359.654,340.304 360.154,340.304 360.5,341.5C 358.814,345.361 356.981,345.361 355,341.5C 354.667,341.833 354.333,342.167 354,342.5C 354.218,338.362 352.552,337.028 349,338.5C 347.933,337.809 346.766,337.309 345.5,337C 346.5,336.667 347.5,336.333 348.5,336C 346.636,334.594 344.803,334.094 343,334.5C 342.544,335.744 343.044,336.577 344.5,337C 343.299,337.903 342.465,339.069 342,340.5C 341.626,339.584 341.126,338.75 340.5,338C 337.833,337.333 335.167,337.333 332.5,338C 334.307,339.236 336.307,339.57 338.5,339C 335.833,340 335.833,341 338.5,342C 336.809,343.405 334.976,344.572 333,345.5C 332.812,343.939 333.645,343.272 335.5,343.5C 335.649,342.448 335.483,341.448 335,340.5C 334.29,341.973 333.124,342.64 331.5,342.5C 331.778,344.346 331.111,345.68 329.5,346.5C 328.304,346.154 328.304,345.654 329.5,345C 328.175,345.148 327.008,344.982 326,344.5C 325.911,346.113 326.745,347.28 328.5,348C 325.968,349.458 323.635,350.458 321.5,351C 322.623,352.044 323.956,352.71 325.5,353C 324.874,353.75 324.374,354.584 324,355.5C 321.599,354.398 319.099,354.231 316.5,355C 318.359,355.684 320.026,356.684 321.5,358C 320.135,359.682 318.635,359.849 317,358.5C 315.956,359.623 315.29,360.956 315,362.5C 314.612,361.572 313.945,360.905 313,360.5C 311.584,361.573 310.25,361.573 309,360.5C 307.513,361.253 307.346,362.086 308.5,363C 300.897,363.457 295.064,360.29 291,353.5C 290.762,349.778 290.262,346.111 289.5,342.5C 291.146,339.533 291.98,336.533 292,333.5C 299.053,329.234 305.887,324.901 312.5,320.5C 319.256,319.681 325.756,318.014 332,315.5C 336.357,315.455 340.69,315.789 345,316.5C 347.326,316.12 349.159,315.12 350.5,313.5 Z"/></g>
<g><path style="opacity:1" fill="#502d73" d="M 389.5,316.5 C 401.462,319.816 412.796,324.483 423.5,330.5C 424.3,332.741 425.966,333.741 428.5,333.5C 428.5,334.5 428.5,335.5 428.5,336.5C 429.873,336.343 431.207,336.51 432.5,337C 441.721,344.888 450.221,353.388 458,362.5C 458.027,367.554 458.694,372.554 460,377.5C 456.346,381.593 452.846,386.259 449.5,391.5C 448.571,392.689 448.238,394.022 448.5,395.5C 447.178,395.33 446.011,395.663 445,396.5C 442.625,400.984 439.791,404.317 436.5,406.5C 434.865,411.431 433.532,416.431 432.5,421.5C 432.167,422.833 431.833,424.167 431.5,425.5C 423.539,414.539 414.206,404.872 403.5,396.5C 400.342,391.034 395.842,388.034 390,387.5C 388.933,386.809 387.766,386.309 386.5,386C 385.167,385.333 385.167,384.667 386.5,384C 380.631,382.138 374.631,380.971 368.5,380.5C 368.5,376.5 368.5,372.5 368.5,368.5C 375.532,368.83 382.532,368.497 389.5,367.5C 382.197,366.503 374.863,366.169 367.5,366.5C 367.5,348.833 367.5,331.167 367.5,313.5C 374.803,314.717 382.136,315.717 389.5,316.5 Z"/></g>
<g><path style="opacity:1" fill="#44316e" d="M 688.5,303.5 C 711.172,308.334 730.839,318.667 747.5,334.5C 751.775,345.647 751.442,356.647 746.5,367.5C 745.264,368.246 743.93,368.579 742.5,368.5C 738.145,366.987 733.979,364.987 730,362.5C 725.62,360.924 721.12,359.924 716.5,359.5C 715.5,358.833 714.5,358.167 713.5,357.5C 718.382,358.181 723.215,359.181 728,360.5C 728.772,360.355 729.439,360.022 730,359.5C 730.853,361.125 731.853,361.458 733,360.5C 732.647,358.772 732.481,357.106 732.5,355.5C 735.919,348.763 736.253,341.93 733.5,335C 733.833,334.667 734.167,334.333 734.5,334C 725.883,321.226 714.217,312.393 699.5,307.5C 698.558,307.608 697.725,307.941 697,308.5C 694.001,306.956 690.834,305.789 687.5,305C 688.056,304.617 688.389,304.117 688.5,303.5 Z"/></g>
<g><path style="opacity:1" fill="#664389" d="M 653.5,301.5 C 653.833,301.5 654.167,301.5 654.5,301.5C 654.5,321.167 654.5,340.833 654.5,360.5C 657.141,359.737 659.808,359.57 662.5,360C 659.378,361.904 656.045,362.571 652.5,362C 653.493,341.909 653.827,321.743 653.5,301.5 Z"/></g>
<g><path style="opacity:1" fill="#3b316a" d="M 747.5,334.5 C 753.538,339.537 758.871,345.203 763.5,351.5C 762.876,351.917 762.543,352.584 762.5,353.5C 764.115,357.787 765.115,361.954 765.5,366C 764.833,366.667 764.167,367.333 763.5,368C 763.5,370.667 763.5,373.333 763.5,376C 761.589,376.727 759.922,378.227 758.5,380.5C 757.078,379.075 755.411,378.075 753.5,377.5C 750.017,374.261 746.35,371.261 742.5,368.5C 743.93,368.579 745.264,368.246 746.5,367.5C 751.442,356.647 751.775,345.647 747.5,334.5 Z"/></g>
<g><path style="opacity:1" fill="#472f71" d="M 271.5,345.5 C 271.415,350.698 271.415,355.865 271.5,361C 272.72,362.525 273.387,364.359 273.5,366.5C 273.46,368.429 273.127,370.262 272.5,372C 272.772,376.44 275.105,378.607 279.5,378.5C 284.176,377.496 288.843,376.496 293.5,375.5C 292.167,376.5 290.833,377.5 289.5,378.5C 288.127,378.343 286.793,378.51 285.5,379C 279.625,382.368 273.625,385.535 267.5,388.5C 265.605,387.027 263.939,385.36 262.5,383.5C 260.832,378.161 259.166,372.828 257.5,367.5C 258.208,364.542 259.208,361.709 260.5,359C 260.167,358.667 259.833,358.333 259.5,358C 262.987,358.833 263.987,357.499 262.5,354C 265.062,349.91 268.062,347.077 271.5,345.5 Z"/></g>
<g><path style="opacity:1" fill="#4f2e6c" d="M 423.5,330.5 C 445.421,341.743 464.087,357.076 479.5,376.5C 473.49,378.834 468.157,382.167 463.5,386.5C 461.596,386.738 460.262,387.738 459.5,389.5C 456.911,390.419 454.911,392.086 453.5,394.5C 451.167,396.167 449.167,398.167 447.5,400.5C 445.413,401.585 444.08,403.251 443.5,405.5C 441.738,406.262 440.738,407.596 440.5,409.5C 439.094,409.973 438.427,410.973 438.5,412.5C 436.75,413.659 435.75,415.326 435.5,417.5C 434.094,417.973 433.427,418.973 433.5,420.5C 433.5,421.167 433.167,421.5 432.5,421.5C 433.532,416.431 434.865,411.431 436.5,406.5C 439.791,404.317 442.625,400.984 445,396.5C 446.011,395.663 447.178,395.33 448.5,395.5C 448.238,394.022 448.571,392.689 449.5,391.5C 452.846,386.259 456.346,381.593 460,377.5C 458.694,372.554 458.027,367.554 458,362.5C 450.221,353.388 441.721,344.888 432.5,337C 431.207,336.51 429.873,336.343 428.5,336.5C 428.5,335.5 428.5,334.5 428.5,333.5C 425.966,333.741 424.3,332.741 423.5,330.5 Z"/></g>
<g><path style="opacity:1" fill="#342f65" d="M 763.5,351.5 C 775.552,366.271 783.885,382.937 788.5,401.5C 788.963,404.482 789.296,407.482 789.5,410.5C 789.846,420.914 789.179,431.248 787.5,441.5C 786.64,444.632 785.64,447.632 784.5,450.5C 785.173,427.842 779.34,407.176 767,388.5C 764.271,385.601 761.438,382.934 758.5,380.5C 759.922,378.227 761.589,376.727 763.5,376C 763.5,373.333 763.5,370.667 763.5,368C 764.167,367.333 764.833,366.667 765.5,366C 765.115,361.954 764.115,357.787 762.5,353.5C 762.543,352.584 762.876,351.917 763.5,351.5 Z"/></g>
<g><path style="opacity:1" fill="#2f294f" d="M 716.5,359.5 C 721.12,359.924 725.62,360.924 730,362.5C 733.979,364.987 738.145,366.987 742.5,368.5C 746.35,371.261 750.017,374.261 753.5,377.5C 751.446,376.391 749.279,375.391 747,374.5C 746.5,374.833 746,375.167 745.5,375.5C 747.418,378.101 748.751,380.601 749.5,383C 748.696,384.771 747.529,386.271 746,387.5C 745.405,388.899 745.572,390.232 746.5,391.5C 745.624,392.251 744.624,392.751 743.5,393C 744.252,393.671 744.586,394.504 744.5,395.5C 741.5,392.833 738.5,390.167 735.5,387.5C 724.508,377.171 711.508,370.838 696.5,368.5C 694.708,367.691 692.708,367.191 690.5,367C 684.175,366.5 677.842,366.334 671.5,366.5C 675.982,365.674 680.649,365.174 685.5,365C 683.167,364.667 680.833,364.333 678.5,364C 682.863,363.631 687.196,363.131 691.5,362.5C 691.33,361.178 691.663,360.011 692.5,359C 700.497,358.832 708.497,358.999 716.5,359.5 Z"/></g>
<g><path style="opacity:1" fill="#332c5a" d="M 713.5,357.5 C 714.5,358.167 715.5,358.833 716.5,359.5C 708.497,358.999 700.497,358.832 692.5,359C 691.663,360.011 691.33,361.178 691.5,362.5C 687.196,363.131 682.863,363.631 678.5,364C 680.833,364.333 683.167,364.667 685.5,365C 680.649,365.174 675.982,365.674 671.5,366.5C 661.647,366.773 651.981,368.273 642.5,371C 641.244,371.417 640.577,372.25 640.5,373.5C 637.177,374.492 633.844,375.492 630.5,376.5C 634.377,374.461 638.043,371.961 641.5,369C 646.955,368.625 652.288,367.625 657.5,366C 675.48,358.28 694.146,355.447 713.5,357.5 Z"/></g>
<g><path style="opacity:1" fill="#59356f" d="M 567.5,334.5 C 563.205,339.641 559.038,344.974 555,350.5C 550.711,354.755 546.211,358.755 541.5,362.5C 539.775,366.534 537.775,370.367 535.5,374C 540.06,373.018 544.06,374.184 547.5,377.5C 545.621,377.393 545.288,377.893 546.5,379C 551.439,379.448 554.773,381.948 556.5,386.5C 550.143,382.655 543.477,379.322 536.5,376.5C 535.035,375.263 533.368,374.263 531.5,373.5C 540.697,357.967 552.697,344.967 567.5,334.5 Z"/></g>
<g><path style="opacity:1" fill="#443370" d="M 279.5,336.5 C 276.744,339.515 274.077,342.515 271.5,345.5C 268.062,347.077 265.062,349.91 262.5,354C 263.987,357.499 262.987,358.833 259.5,358C 259.833,358.333 260.167,358.667 260.5,359C 259.208,361.709 258.208,364.542 257.5,367.5C 259.166,372.828 260.832,378.161 262.5,383.5C 263.939,385.36 265.605,387.027 267.5,388.5C 273.625,385.535 279.625,382.368 285.5,379C 286.793,378.51 288.127,378.343 289.5,378.5C 283.875,380.979 278.542,383.979 273.5,387.5C 268.013,390.079 263.013,393.412 258.5,397.5C 257.226,396.811 257.226,395.977 258.5,395C 255.572,393.74 253.739,391.573 253,388.5C 251.259,386.958 249.426,386.124 247.5,386C 248.517,384.951 248.684,383.784 248,382.5C 247.667,383.167 247.333,383.833 247,384.5C 244.816,381.265 244.316,377.931 245.5,374.5C 253.64,359.024 264.973,346.357 279.5,336.5 Z"/></g>
<g><path style="opacity:1" fill="#65437f" d="M 365.5,312.5 C 369.534,312.505 373.534,312.838 377.5,313.5C 381.671,314.262 385.671,315.262 389.5,316.5C 382.136,315.717 374.803,314.717 367.5,313.5C 367.5,331.167 367.5,348.833 367.5,366.5C 374.863,366.169 382.197,366.503 389.5,367.5C 382.532,368.497 375.532,368.83 368.5,368.5C 368.5,372.5 368.5,376.5 368.5,380.5C 374.631,380.971 380.631,382.138 386.5,384C 385.167,384.667 385.167,385.333 386.5,386C 387.766,386.309 388.933,386.809 390,387.5C 395.842,388.034 400.342,391.034 403.5,396.5C 391.675,388.557 378.675,383.557 364.5,381.5C 364.5,381.167 364.5,380.833 364.5,380.5C 364.167,379.833 363.833,379.167 363.5,378.5C 365.402,375.663 366.069,372.329 365.5,368.5C 348.674,367.948 332.007,368.948 315.5,371.5C 306.585,372.895 297.919,375.229 289.5,378.5C 290.833,377.5 292.167,376.5 293.5,375.5C 301.418,373.021 309.418,370.854 317.5,369C 333.45,367.17 349.45,366.337 365.5,366.5C 365.5,348.5 365.5,330.5 365.5,312.5 Z"/></g>
<g><path style="opacity:1" fill="#2aa9cb" d="M 671.5,366.5 C 677.842,366.334 684.175,366.5 690.5,367C 692.708,367.191 694.708,367.691 696.5,368.5C 691.156,368.334 685.823,368.501 680.5,369C 676.478,369.913 672.811,371.413 669.5,373.5C 660.158,372.299 650.825,372.299 641.5,373.5C 641.167,373.5 640.833,373.5 640.5,373.5C 640.577,372.25 641.244,371.417 642.5,371C 651.981,368.273 661.647,366.773 671.5,366.5 Z"/></g>
<g><path style="opacity:1" fill="#4b2a69" d="M 363.5,378.5 C 360.262,377.367 356.929,376.533 353.5,376C 344.84,375.5 336.173,375.334 327.5,375.5C 326.5,375.5 325.5,375.5 324.5,375.5C 320.979,374.629 317.312,373.795 313.5,373C 314.416,372.722 315.082,372.222 315.5,371.5C 332.007,368.948 348.674,367.948 365.5,368.5C 366.069,372.329 365.402,375.663 363.5,378.5 Z"/></g>
<g><path style="opacity:1" fill="#f28e14" d="M 501.5,370.5 C 503.5,370.5 505.5,370.5 507.5,370.5C 508.919,371.451 510.585,371.784 512.5,371.5C 512.343,372.873 512.51,374.207 513,375.5C 516.655,384.143 520.822,392.477 525.5,400.5C 527.291,401.17 528.958,401.837 530.5,402.5C 525.786,402.353 521.119,402.686 516.5,403.5C 515.325,403.719 514.325,403.386 513.5,402.5C 506.384,393.714 500.051,384.381 494.5,374.5C 494.709,373.914 495.043,373.414 495.5,373C 494.207,372.51 492.873,372.343 491.5,372.5C 494.507,370.825 497.84,370.159 501.5,370.5 Z"/></g>
<g><path style="opacity:1" fill="#f49811" d="M 507.5,370.5 C 511.182,370.335 514.848,370.501 518.5,371C 522.206,378.246 526.039,385.413 530,392.5C 531.43,395.353 532.263,398.353 532.5,401.5C 534.933,401.273 536.599,402.273 537.5,404.5C 537.167,404.5 536.833,404.5 536.5,404.5C 534.579,403.637 532.579,402.971 530.5,402.5C 528.958,401.837 527.291,401.17 525.5,400.5C 520.822,392.477 516.655,384.143 513,375.5C 512.51,374.207 512.343,372.873 512.5,371.5C 510.585,371.784 508.919,371.451 507.5,370.5 Z"/></g>
<g><path style="opacity:1" fill="#25bddf" d="M 696.5,368.5 C 711.508,370.838 724.508,377.171 735.5,387.5C 731.156,385.553 726.989,383.886 723,382.5C 718.704,383.685 714.37,384.685 710,385.5C 708.984,384.366 708.317,384.699 708,386.5C 707.549,384.071 706.715,383.904 705.5,386C 706.451,386.718 706.617,387.551 706,388.5C 705.333,389.833 704.667,389.833 704,388.5C 703.667,389.167 703.333,389.833 703,390.5C 701.871,388.859 700.371,387.859 698.5,387.5C 689.151,381.991 679.484,377.324 669.5,373.5C 672.811,371.413 676.478,369.913 680.5,369C 685.823,368.501 691.156,368.334 696.5,368.5 Z"/></g>
<g><path style="opacity:1" fill="#eba664" d="M 491.5,372.5 C 489.485,373.924 487.152,374.59 484.5,374.5C 486.515,373.076 488.848,372.41 491.5,372.5 Z"/></g>
<g><path style="opacity:1" fill="#f5a417" d="M 501.5,370.5 C 501.5,369.833 501.833,369.5 502.5,369.5C 512.553,368.532 522.219,369.866 531.5,373.5C 533.368,374.263 535.035,375.263 536.5,376.5C 535.624,376.369 534.957,376.702 534.5,377.5C 538.266,381.091 541.432,385.091 544,389.5C 548.517,398.947 552.017,408.614 554.5,418.5C 551.86,415.194 548.86,412.194 545.5,409.5C 543.17,407.333 540.503,405.666 537.5,404.5C 536.599,402.273 534.933,401.273 532.5,401.5C 532.263,398.353 531.43,395.353 530,392.5C 526.039,385.413 522.206,378.246 518.5,371C 514.848,370.501 511.182,370.335 507.5,370.5C 505.5,370.5 503.5,370.5 501.5,370.5 Z"/></g>
<g><path style="opacity:1" fill="#f08216" d="M 491.5,372.5 C 492.873,372.343 494.207,372.51 495.5,373C 495.043,373.414 494.709,373.914 494.5,374.5C 500.051,384.381 506.384,393.714 513.5,402.5C 514.325,403.386 515.325,403.719 516.5,403.5C 513.686,405.07 510.686,406.403 507.5,407.5C 505.071,407.884 502.737,408.551 500.5,409.5C 499.955,407.407 499.122,405.407 498,403.5C 491.791,395.031 485.625,386.698 479.5,378.5C 479.833,377.833 480.167,377.167 480.5,376.5C 481.605,375.4 482.938,374.733 484.5,374.5C 487.152,374.59 489.485,373.924 491.5,372.5 Z"/></g>
<g><path style="opacity:1" fill="#eef6f2" d="M 669.5,373.5 C 679.484,377.324 689.151,381.991 698.5,387.5C 718.52,404.876 727.854,426.876 726.5,453.5C 726.5,454.833 726.5,456.167 726.5,457.5C 725.833,459.167 725.167,460.833 724.5,462.5C 724.522,447.823 722.356,433.49 718,419.5C 705.893,397.66 688.393,383.16 665.5,376C 661.845,375.523 658.512,375.69 655.5,376.5C 653.833,375.833 652.167,375.167 650.5,374.5C 645.909,375.632 641.242,376.299 636.5,376.5C 638.261,375.687 639.928,374.687 641.5,373.5C 650.825,372.299 660.158,372.299 669.5,373.5 Z"/></g>
<g><path style="opacity:1" fill="#a02e3f" d="M 324.5,375.5 C 325.5,375.5 326.5,375.5 327.5,375.5C 325.833,376.167 324.167,376.833 322.5,377.5C 319.833,377.5 317.167,377.5 314.5,377.5C 317.589,376.215 320.922,375.549 324.5,375.5 Z"/></g>
<g><path style="opacity:1" fill="#c71d2e" d="M 327.5,375.5 C 336.173,375.334 344.84,375.5 353.5,376C 356.929,376.533 360.262,377.367 363.5,378.5C 363.833,379.167 364.167,379.833 364.5,380.5C 360.154,380.334 355.821,380.501 351.5,381C 350.263,381.232 349.263,381.732 348.5,382.5C 348.167,382.5 347.833,382.5 347.5,382.5C 345.102,382.259 343.102,382.926 341.5,384.5C 338.743,385.512 336.076,386.512 333.5,387.5C 331.973,387.427 330.973,388.094 330.5,389.5C 322.685,393.8 315.852,399.467 310,406.5C 308.223,409.059 306.723,411.726 305.5,414.5C 304.094,414.973 303.427,415.973 303.5,417.5C 303.167,417.5 302.833,417.5 302.5,417.5C 303.349,413.295 304.849,409.295 307,405.5C 308.011,404.663 309.178,404.33 310.5,404.5C 310.5,403.5 310.5,402.5 310.5,401.5C 311.5,401.5 312.5,401.5 313.5,401.5C 313.343,400.127 313.51,398.793 314,397.5C 318.506,393.327 322.673,388.827 326.5,384C 325.142,382.168 324.808,380.335 325.5,378.5C 324.675,377.614 323.675,377.281 322.5,377.5C 324.167,376.833 325.833,376.167 327.5,375.5 Z"/></g>
<g><path style="opacity:1" fill="#a8c5d1" d="M 640.5,373.5 C 640.833,373.5 641.167,373.5 641.5,373.5C 639.928,374.687 638.261,375.687 636.5,376.5C 636.167,376.5 635.833,376.5 635.5,376.5C 633.167,377.167 630.833,377.833 628.5,378.5C 628.833,377.5 629.5,376.833 630.5,376.5C 633.844,375.492 637.177,374.492 640.5,373.5 Z"/></g>
<g><path style="opacity:1" fill="#35275a" d="M 315.5,371.5 C 315.082,372.222 314.416,372.722 313.5,373C 317.312,373.795 320.979,374.629 324.5,375.5C 320.922,375.549 317.589,376.215 314.5,377.5C 309.835,378.057 305.502,379.39 301.5,381.5C 298.402,381.756 295.402,382.422 292.5,383.5C 289.121,383.678 285.955,383.678 283,383.5C 280.297,385.902 277.13,387.235 273.5,387.5C 278.542,383.979 283.875,380.979 289.5,378.5C 297.919,375.229 306.585,372.895 315.5,371.5 Z"/></g>
<g><path style="opacity:1" fill="#f5ab11" d="M 536.5,376.5 C 543.477,379.322 550.143,382.655 556.5,386.5C 556.833,387.5 557.5,388.167 558.5,388.5C 562.141,391.805 565.808,395.138 569.5,398.5C 571.167,400.5 572.833,402.5 574.5,404.5C 574.427,406.027 575.094,407.027 576.5,407.5C 578.543,408.579 579.876,410.246 580.5,412.5C 581.833,414.833 583.167,417.167 584.5,419.5C 579.733,426.714 574.733,433.714 569.5,440.5C 564.018,433.551 559.018,426.217 554.5,418.5C 552.017,408.614 548.517,398.947 544,389.5C 541.432,385.091 538.266,381.091 534.5,377.5C 534.957,376.702 535.624,376.369 536.5,376.5 Z"/></g>
<g><path style="opacity:1" fill="#fdfdfd" d="M 724.5,462.5 C 722.965,473.105 719.632,483.105 714.5,492.5C 704.798,506.349 691.798,515.849 675.5,521C 661.742,524.96 647.742,526.294 633.5,525C 630.647,523.57 627.647,522.737 624.5,522.5C 619.368,520.1 614.368,517.434 609.5,514.5C 601.887,509.553 594.553,504.22 587.5,498.5C 578.2,490.867 569.533,482.534 561.5,473.5C 560.65,471.415 560.316,469.415 560.5,467.5C 562.292,461.212 565.459,455.879 570,451.5C 572.715,444.725 576.882,439.058 582.5,434.5C 583.946,432.382 584.613,430.049 584.5,427.5C 585.675,427.719 586.675,427.386 587.5,426.5C 593.846,416.999 600.346,407.666 607,398.5C 611.281,395.763 614.781,392.263 617.5,388C 619.803,385.866 622.469,384.366 625.5,383.5C 626.386,382.675 626.719,381.675 626.5,380.5C 629.943,379.941 632.943,378.607 635.5,376.5C 635.833,376.5 636.167,376.5 636.5,376.5C 641.242,376.299 645.909,375.632 650.5,374.5C 652.167,375.167 653.833,375.833 655.5,376.5C 658.512,375.69 661.845,375.523 665.5,376C 688.393,383.16 705.893,397.66 718,419.5C 722.356,433.49 724.522,447.823 724.5,462.5 Z"/></g>
<g><path style="opacity:1" fill="#ee7817" d="M 479.5,378.5 C 485.625,386.698 491.791,395.031 498,403.5C 499.122,405.407 499.955,407.407 500.5,409.5C 499.671,410.332 498.838,409.999 498,408.5C 497.667,408.833 497.333,409.167 497,409.5C 495.509,407.996 493.676,407.163 491.5,407C 492.711,406.107 492.711,405.274 491.5,404.5C 490.914,404.709 490.414,405.043 490,405.5C 487.974,404.142 485.807,403.309 483.5,403C 484.167,402.667 484.833,402.333 485.5,402C 484.636,400.863 483.636,399.53 482.5,398C 479.456,397.641 479.122,396.974 481.5,396C 479.956,395.71 478.623,395.044 477.5,394C 477.833,393 478.167,392 478.5,391C 476.549,389.266 475.549,387.099 475.5,384.5C 474.127,384.657 472.793,384.49 471.5,384C 472.833,383.333 472.833,382.667 471.5,382C 473.112,381.28 474.612,381.446 476,382.5C 476.66,380.676 477.827,379.343 479.5,378.5 Z"/></g>
<g><path style="opacity:1" fill="#bb5139" d="M 314.5,377.5 C 312.321,378.677 309.987,379.677 307.5,380.5C 305.565,381.15 303.565,381.483 301.5,381.5C 305.502,379.39 309.835,378.057 314.5,377.5 Z"/></g>
<g><path style="opacity:1" fill="#ad5860" d="M 364.5,380.5 C 364.5,380.833 364.5,381.167 364.5,381.5C 359.13,381.392 353.797,381.725 348.5,382.5C 349.263,381.732 350.263,381.232 351.5,381C 355.821,380.501 360.154,380.334 364.5,380.5 Z"/></g>
<g><path style="opacity:1" fill="#2b2347" d="M 753.5,377.5 C 755.411,378.075 757.078,379.075 758.5,380.5C 761.438,382.934 764.271,385.601 767,388.5C 779.34,407.176 785.173,427.842 784.5,450.5C 780.119,465.844 772.452,479.177 761.5,490.5C 758.629,489.321 755.796,489.321 753,490.5C 752.536,489.906 752.369,489.239 752.5,488.5C 757.535,478.762 760.535,468.429 761.5,457.5C 764.441,434.572 758.775,413.905 744.5,395.5C 744.586,394.504 744.252,393.671 743.5,393C 744.624,392.751 745.624,392.251 746.5,391.5C 745.572,390.232 745.405,388.899 746,387.5C 747.529,386.271 748.696,384.771 749.5,383C 748.751,380.601 747.418,378.101 745.5,375.5C 746,375.167 746.5,374.833 747,374.5C 749.279,375.391 751.446,376.391 753.5,377.5 Z"/></g>
<g><path style="opacity:1" fill="#fdfcfc" d="M 364.5,381.5 C 378.675,383.557 391.675,388.557 403.5,396.5C 414.206,404.872 423.539,414.539 431.5,425.5C 436.762,432.606 442.262,439.606 448,446.5C 451.764,452.363 455.264,458.363 458.5,464.5C 458.704,466.685 459.37,468.685 460.5,470.5C 459.5,471.833 458.5,473.167 457.5,474.5C 452.822,479.179 448.489,484.179 444.5,489.5C 436.174,496.493 428.174,503.826 420.5,511.5C 419.833,511.5 419.167,511.5 418.5,511.5C 407.799,516.847 396.799,521.68 385.5,526C 375.539,527.67 365.539,527.837 355.5,526.5C 353.485,525.076 351.152,524.41 348.5,524.5C 335.838,521.004 324.838,514.671 315.5,505.5C 312.848,501.518 309.848,497.851 306.5,494.5C 303.907,489.647 301.574,484.647 299.5,479.5C 298.871,476.603 297.871,473.936 296.5,471.5C 296.5,471.167 296.5,470.833 296.5,470.5C 294.263,460.269 293.929,449.935 295.5,439.5C 296.924,437.485 297.59,435.152 297.5,432.5C 297.5,432.167 297.5,431.833 297.5,431.5C 298.807,427.919 300.141,424.253 301.5,420.5C 302.906,420.027 303.573,419.027 303.5,417.5C 304.906,417.027 305.573,416.027 305.5,414.5C 306.723,411.726 308.223,409.059 310,406.5C 315.852,399.467 322.685,393.8 330.5,389.5C 332.027,389.573 333.027,388.906 333.5,387.5C 336.076,386.512 338.743,385.512 341.5,384.5C 343.898,384.741 345.898,384.074 347.5,382.5C 347.833,382.5 348.167,382.5 348.5,382.5C 353.797,381.725 359.13,381.392 364.5,381.5 Z"/></g>
<g><path style="opacity:1" fill="#322853" d="M 292.5,383.5 C 291.833,384.167 291.167,384.833 290.5,385.5C 283.34,387.908 277.007,391.574 271.5,396.5C 269.251,397.08 267.585,398.413 266.5,400.5C 265.833,400.5 265.167,400.5 264.5,400.5C 261.063,400.552 258.063,401.719 255.5,404C 252.71,406.158 250.21,408.658 248,411.5C 247.383,412.449 247.549,413.282 248.5,414C 246.41,414.669 244.743,415.836 243.5,417.5C 244.045,415.407 244.878,413.407 246,411.5C 250.003,406.665 254.17,401.998 258.5,397.5C 263.013,393.412 268.013,390.079 273.5,387.5C 277.13,387.235 280.297,385.902 283,383.5C 285.955,383.678 289.121,383.678 292.5,383.5 Z"/></g>
<g><path style="opacity:1" fill="#dcbabd" d="M 347.5,382.5 C 345.898,384.074 343.898,384.741 341.5,384.5C 343.102,382.926 345.102,382.259 347.5,382.5 Z"/></g>
<g><path style="opacity:1" fill="#bf6440" d="M 301.5,381.5 C 298.2,383.642 294.533,384.975 290.5,385.5C 291.167,384.833 291.833,384.167 292.5,383.5C 295.402,382.422 298.402,381.756 301.5,381.5 Z"/></g>
<g><path style="opacity:1" fill="#e96e1b" d="M 479.5,376.5 C 479.833,376.5 480.167,376.5 480.5,376.5C 480.167,377.167 479.833,377.833 479.5,378.5C 477.827,379.343 476.66,380.676 476,382.5C 474.612,381.446 473.112,381.28 471.5,382C 472.833,382.667 472.833,383.333 471.5,384C 472.793,384.49 474.127,384.657 475.5,384.5C 475.549,387.099 476.549,389.266 478.5,391C 478.167,392 477.833,393 477.5,394C 478.623,395.044 479.956,395.71 481.5,396C 479.122,396.974 479.456,397.641 482.5,398C 483.636,399.53 484.636,400.863 485.5,402C 484.833,402.333 484.167,402.667 483.5,403C 485.807,403.309 487.974,404.142 490,405.5C 490.414,405.043 490.914,404.709 491.5,404.5C 492.711,405.274 492.711,406.107 491.5,407C 493.676,407.163 495.509,407.996 497,409.5C 497.333,409.167 497.667,408.833 498,408.5C 498.838,409.999 499.671,410.332 500.5,409.5C 502.737,408.551 505.071,407.884 507.5,407.5C 505.833,408.833 504.167,410.167 502.5,411.5C 497.219,414.78 492.219,418.447 487.5,422.5C 480.005,411.156 471.505,400.489 462,390.5C 461.7,388.934 462.2,387.601 463.5,386.5C 468.157,382.167 473.49,378.834 479.5,376.5 Z"/></g>
<g><path style="opacity:1" fill="#d2a1a4" d="M 333.5,387.5 C 333.027,388.906 332.027,389.573 330.5,389.5C 330.973,388.094 331.973,387.427 333.5,387.5 Z"/></g>
<g><path style="opacity:1" fill="#613662" d="M 558.5,388.5 C 562.241,387.599 564.241,388.932 564.5,392.5C 567.887,392.862 569.553,394.862 569.5,398.5C 565.808,395.138 562.141,391.805 558.5,388.5 Z"/></g>
<g><path style="opacity:1" fill="#d81e29" d="M 314.5,377.5 C 317.167,377.5 319.833,377.5 322.5,377.5C 323.675,377.281 324.675,377.614 325.5,378.5C 324.808,380.335 325.142,382.168 326.5,384C 322.673,388.827 318.506,393.327 314,397.5C 313.51,398.793 313.343,400.127 313.5,401.5C 312.5,401.5 311.5,401.5 310.5,401.5C 310.5,402.5 310.5,403.5 310.5,404.5C 309.178,404.33 308.011,404.663 307,405.5C 304.849,409.295 303.349,413.295 302.5,417.5C 301.89,418.391 301.557,419.391 301.5,420.5C 299.715,420.926 298.715,422.092 298.5,424C 297.841,426.462 297.507,428.962 297.5,431.5C 297.5,431.833 297.5,432.167 297.5,432.5C 296.262,434.214 295.595,436.214 295.5,438.5C 295.167,438.5 294.833,438.5 294.5,438.5C 292.647,435.305 290.647,432.139 288.5,429C 289.742,426.173 288.742,423.673 285.5,421.5C 285.423,420.25 284.756,419.417 283.5,419C 283.833,418.667 284.167,418.333 284.5,418C 283.552,417.517 282.552,417.351 281.5,417.5C 279.984,414.626 277.984,411.959 275.5,409.5C 277.278,407.736 278.611,405.736 279.5,403.5C 282.963,399.536 286.63,395.702 290.5,392C 296.344,388.304 302.011,384.47 307.5,380.5C 309.987,379.677 312.321,378.677 314.5,377.5 Z"/></g>
<g><path style="opacity:1" fill="#ef7725" d="M 307.5,380.5 C 302.011,384.47 296.344,388.304 290.5,392C 286.63,395.702 282.963,399.536 279.5,403.5C 275.933,406.977 272.6,410.644 269.5,414.5C 268.88,412.023 267.88,412.023 266.5,414.5C 263.167,411.833 259.833,411.833 256.5,414.5C 256.167,414.333 255.833,414.167 255.5,414C 257.141,412.871 258.141,411.371 258.5,409.5C 259.6,408.395 260.267,407.062 260.5,405.5C 263.089,404.581 265.089,402.914 266.5,400.5C 268.749,399.92 270.415,398.587 271.5,396.5C 277.007,391.574 283.34,387.908 290.5,385.5C 294.533,384.975 298.2,383.642 301.5,381.5C 303.565,381.483 305.565,381.15 307.5,380.5 Z"/></g>
<g><path style="opacity:1" fill="#f4f3f0" d="M 635.5,376.5 C 632.943,378.607 629.943,379.941 626.5,380.5C 626.719,381.675 626.386,382.675 625.5,383.5C 622.469,384.366 619.803,385.866 617.5,388C 614.781,392.263 611.281,395.763 607,398.5C 600.346,407.666 593.846,416.999 587.5,426.5C 586.675,427.386 585.675,427.719 584.5,427.5C 584.613,430.049 583.946,432.382 582.5,434.5C 576.882,439.058 572.715,444.725 570,451.5C 565.459,455.879 562.292,461.212 560.5,467.5C 560.316,469.415 560.65,471.415 561.5,473.5C 558.757,471.761 556.757,469.427 555.5,466.5C 555.833,465.167 556.167,463.833 556.5,462.5C 557.82,460.537 559.154,458.537 560.5,456.5C 563.5,451.167 566.5,445.833 569.5,440.5C 574.733,433.714 579.733,426.714 584.5,419.5C 591.514,411.817 598.18,403.817 604.5,395.5C 609.961,391.211 615.294,386.711 620.5,382C 622.867,380.155 625.533,378.989 628.5,378.5C 630.833,377.833 633.167,377.167 635.5,376.5 Z"/></g>
<g><path style="opacity:1" fill="#c25a3a" d="M 459.5,389.5 C 458.089,391.914 456.089,393.581 453.5,394.5C 454.911,392.086 456.911,390.419 459.5,389.5 Z"/></g>
<g><path style="opacity:1" fill="#d37c4a" d="M 271.5,396.5 C 270.415,398.587 268.749,399.92 266.5,400.5C 267.585,398.413 269.251,397.08 271.5,396.5 Z"/></g>
<g><path style="opacity:1" fill="#21c8e9" d="M 735.5,387.5 C 738.5,390.167 741.5,392.833 744.5,395.5C 758.775,413.905 764.441,434.572 761.5,457.5C 761.666,452.489 761.499,447.489 761,442.5C 759.5,439.108 757.667,438.441 755.5,440.5C 752.733,439.362 752.066,437.528 753.5,435C 751.117,434.935 750.45,434.102 751.5,432.5C 750.65,430.379 749.65,428.212 748.5,426C 749.061,424.324 750.061,422.991 751.5,422C 750.975,421.308 750.308,420.808 749.5,420.5C 746.479,423.686 743.646,427.02 741,430.5C 740.667,430.167 740.333,429.833 740,429.5C 737.006,431.373 733.839,432.873 730.5,434C 731.604,435.131 731.271,435.965 729.5,436.5C 729.022,442.415 728.022,448.082 726.5,453.5C 727.854,426.876 718.52,404.876 698.5,387.5C 700.371,387.859 701.871,388.859 703,390.5C 703.333,389.833 703.667,389.167 704,388.5C 704.667,389.833 705.333,389.833 706,388.5C 706.617,387.551 706.451,386.718 705.5,386C 706.715,383.904 707.549,384.071 708,386.5C 708.317,384.699 708.984,384.366 710,385.5C 714.37,384.685 718.704,383.685 723,382.5C 726.989,383.886 731.156,385.553 735.5,387.5 Z"/></g>
<g><path style="opacity:1" fill="#52356d" d="M 604.5,395.5 C 598.18,403.817 591.514,411.817 584.5,419.5C 583.167,417.167 581.833,414.833 580.5,412.5C 582.527,412.662 584.527,412.495 586.5,412C 591.498,405.158 597.498,399.658 604.5,395.5 Z"/></g>
<g><path style="opacity:1" fill="#39346c" d="M 245.5,374.5 C 244.316,377.931 244.816,381.265 247,384.5C 247.333,383.833 247.667,383.167 248,382.5C 248.684,383.784 248.517,384.951 247.5,386C 249.426,386.124 251.259,386.958 253,388.5C 253.739,391.573 255.572,393.74 258.5,395C 257.226,395.977 257.226,396.811 258.5,397.5C 254.17,401.998 250.003,406.665 246,411.5C 244.878,413.407 244.045,415.407 243.5,417.5C 241.738,418.262 240.738,419.596 240.5,421.5C 238.692,424.436 236.859,427.436 235,430.5C 232.536,438.226 229.869,445.893 227,453.5C 226.5,445.841 226.334,438.174 226.5,430.5C 226.5,430.167 226.5,429.833 226.5,429.5C 228.136,425.79 228.802,421.79 228.5,417.5C 228.366,415.708 228.699,414.042 229.5,412.5C 231.277,409.495 232.277,406.162 232.5,402.5C 235.24,392.357 239.573,383.024 245.5,374.5 Z"/></g>
<g><path style="opacity:1" fill="#e6621b" d="M 463.5,386.5 C 462.2,387.601 461.7,388.934 462,390.5C 471.505,400.489 480.005,411.156 487.5,422.5C 484.5,426.167 481.167,429.5 477.5,432.5C 469.651,420.642 460.651,409.642 450.5,399.5C 449.583,400.127 448.583,400.461 447.5,400.5C 449.167,398.167 451.167,396.167 453.5,394.5C 456.089,393.581 458.089,391.914 459.5,389.5C 460.262,387.738 461.596,386.738 463.5,386.5 Z"/></g>
<g><path style="opacity:1" fill="#cf7c4b" d="M 264.5,400.5 C 265.167,400.5 265.833,400.5 266.5,400.5C 265.089,402.914 263.089,404.581 260.5,405.5C 261.833,403.833 263.167,402.167 264.5,400.5 Z"/></g>
<g><path style="opacity:1" fill="#b04c41" d="M 447.5,400.5 C 446.92,402.749 445.587,404.415 443.5,405.5C 444.08,403.251 445.413,401.585 447.5,400.5 Z"/></g>
<g><path style="opacity:1" fill="#e4541c" d="M 477.5,432.5 C 476.89,433.391 476.557,434.391 476.5,435.5C 474.413,436.585 473.08,438.251 472.5,440.5C 471.061,442.36 469.395,444.027 467.5,445.5C 459.696,435.943 451.863,426.276 444,416.5C 442.4,414.419 440.566,413.752 438.5,414.5C 438.5,413.833 438.5,413.167 438.5,412.5C 439.906,412.027 440.573,411.027 440.5,409.5C 440.738,407.596 441.738,406.262 443.5,405.5C 445.587,404.415 446.92,402.749 447.5,400.5C 448.583,400.461 449.583,400.127 450.5,399.5C 460.651,409.642 469.651,420.642 477.5,432.5 Z"/></g>
<g><path style="opacity:1" fill="#726e8d" d="M 232.5,402.5 C 232.277,406.162 231.277,409.495 229.5,412.5C 229.723,408.838 230.723,405.505 232.5,402.5 Z"/></g>
<g><path style="opacity:1" fill="#bd8740" d="M 574.5,404.5 C 575.906,404.973 576.573,405.973 576.5,407.5C 575.094,407.027 574.427,406.027 574.5,404.5 Z"/></g>
<g><path style="opacity:1" fill="#c87a4a" d="M 260.5,405.5 C 260.267,407.062 259.6,408.395 258.5,409.5C 255.833,411.833 253.167,414.167 250.5,416.5C 253.101,412.229 256.434,408.563 260.5,405.5 Z"/></g>
<g><path style="opacity:1" fill="#ad4540" d="M 440.5,409.5 C 440.573,411.027 439.906,412.027 438.5,412.5C 438.427,410.973 439.094,409.973 440.5,409.5 Z"/></g>
<g><path style="opacity:1" fill="#8a271c" d="M 530.5,402.5 C 532.579,402.971 534.579,403.637 536.5,404.5C 537.652,408.104 538.652,411.771 539.5,415.5C 537.38,421.131 533.88,425.797 529,429.5C 528.427,433.277 529.427,436.61 532,439.5C 532.58,434.599 534.247,434.265 537,438.5C 537.333,437.167 537.667,435.833 538,434.5C 540.71,442.977 544.377,450.977 549,458.5C 551.475,459.986 553.975,461.319 556.5,462.5C 556.167,463.833 555.833,465.167 555.5,466.5C 552.907,465.246 550.573,463.58 548.5,461.5C 547.92,459.251 546.587,457.585 544.5,456.5C 541.542,451.874 537.876,447.874 533.5,444.5C 530.537,440.202 527.203,436.202 523.5,432.5C 517.479,424.479 510.479,417.479 502.5,411.5C 504.167,410.167 505.833,408.833 507.5,407.5C 510.686,406.403 513.686,405.07 516.5,403.5C 521.119,402.686 525.786,402.353 530.5,402.5 Z"/></g>
<g><path style="opacity:1" fill="#332d4b" d="M 264.5,400.5 C 263.167,402.167 261.833,403.833 260.5,405.5C 256.434,408.563 253.101,412.229 250.5,416.5C 249.094,416.973 248.427,417.973 248.5,419.5C 245.723,421.951 243.723,424.951 242.5,428.5C 241.094,428.973 240.427,429.973 240.5,431.5C 238.5,434.833 236.5,438.167 234.5,441.5C 235.96,434.604 237.96,427.937 240.5,421.5C 240.738,419.596 241.738,418.262 243.5,417.5C 244.743,415.836 246.41,414.669 248.5,414C 247.549,413.282 247.383,412.449 248,411.5C 250.21,408.658 252.71,406.158 255.5,404C 258.063,401.719 261.063,400.552 264.5,400.5 Z"/></g>
<g><path style="opacity:1" fill="#f4faf6" d="M 788.5,401.5 C 791.109,401.83 792.776,403.33 793.5,406C 793.167,406.333 792.833,406.667 792.5,407C 794.269,410.549 796.269,413.882 798.5,417C 801.169,433.738 802.003,450.571 801,467.5C 800.218,472.131 799.051,476.631 797.5,481C 797.833,481.333 798.167,481.667 798.5,482C 795.893,486.278 793.726,490.778 792,495.5C 790.961,496.71 789.794,497.71 788.5,498.5C 790.158,489.55 791.492,480.55 792.5,471.5C 793.268,470.737 793.768,469.737 794,468.5C 794.667,455.833 794.667,443.167 794,430.5C 793.79,428.942 793.29,427.609 792.5,426.5C 792.739,420.816 791.739,415.482 789.5,410.5C 789.296,407.482 788.963,404.482 788.5,401.5 Z"/></g>
<g><path style="opacity:1" fill="#d2989b" d="M 305.5,414.5 C 305.573,416.027 304.906,417.027 303.5,417.5C 303.427,415.973 304.094,414.973 305.5,414.5 Z"/></g>
<g><path style="opacity:1" fill="#bc4435" d="M 438.5,412.5 C 438.5,413.167 438.5,413.833 438.5,414.5C 437.9,415.9 436.9,416.9 435.5,417.5C 435.75,415.326 436.75,413.659 438.5,412.5 Z"/></g>
<g><path style="opacity:1" fill="#bf6769" d="M 302.5,417.5 C 302.833,417.5 303.167,417.5 303.5,417.5C 303.573,419.027 302.906,420.027 301.5,420.5C 301.557,419.391 301.89,418.391 302.5,417.5 Z"/></g>
<g><path style="opacity:1" fill="#973842" d="M 435.5,417.5 C 435.443,418.609 435.11,419.609 434.5,420.5C 434.167,420.5 433.833,420.5 433.5,420.5C 433.427,418.973 434.094,417.973 435.5,417.5 Z"/></g>
<g><path style="opacity:1" fill="#e0421c" d="M 467.5,445.5 C 467.008,447.819 466.008,449.819 464.5,451.5C 461.543,451.523 459.043,452.523 457,454.5C 452.273,448.103 447.94,441.436 444,434.5C 439.68,430.394 436.513,425.728 434.5,420.5C 435.11,419.609 435.443,418.609 435.5,417.5C 436.9,416.9 437.9,415.9 438.5,414.5C 440.566,413.752 442.4,414.419 444,416.5C 451.863,426.276 459.696,435.943 467.5,445.5 Z"/></g>
<g><path style="opacity:1" fill="#1dd1f0" d="M 755.5,440.5 C 753.208,446.355 750.208,451.188 746.5,455C 745.874,455.75 745.374,456.584 745,457.5C 742.67,455.968 740.67,456.302 739,458.5C 737.431,458.153 735.598,457.986 733.5,458C 733.058,460.824 731.225,462.991 728,464.5C 727.667,465.5 727.333,466.5 727,467.5C 726.502,464.183 726.335,460.85 726.5,457.5C 726.5,456.167 726.5,454.833 726.5,453.5C 728.022,448.082 729.022,442.415 729.5,436.5C 731.271,435.965 731.604,435.131 730.5,434C 733.839,432.873 737.006,431.373 740,429.5C 740.333,429.833 740.667,430.167 741,430.5C 743.646,427.02 746.479,423.686 749.5,420.5C 750.308,420.808 750.975,421.308 751.5,422C 750.061,422.991 749.061,424.324 748.5,426C 749.65,428.212 750.65,430.379 751.5,432.5C 750.45,434.102 751.117,434.935 753.5,435C 752.066,437.528 752.733,439.362 755.5,440.5 Z"/></g>
<g><path style="opacity:1" fill="#d82b2a" d="M 285.5,421.5 C 288.742,423.673 289.742,426.173 288.5,429C 290.647,432.139 292.647,435.305 294.5,438.5C 293.385,448.12 293.218,457.786 294,467.5C 294.852,468.571 295.685,469.571 296.5,470.5C 296.5,470.833 296.5,471.167 296.5,471.5C 296.345,474.716 297.345,477.383 299.5,479.5C 301.574,484.647 303.907,489.647 306.5,494.5C 307.038,496.117 307.371,497.784 307.5,499.5C 304.5,499.5 301.5,499.5 298.5,499.5C 300.766,496.72 300.766,493.72 298.5,490.5C 299.718,489.197 299.385,488.197 297.5,487.5C 296.366,484.93 295.532,482.264 295,479.5C 290.725,474.676 288.892,469.176 289.5,463C 288.939,461.324 287.939,459.991 286.5,459C 286.123,454.579 286.123,450.079 286.5,445.5C 285.356,442.606 284.356,439.606 283.5,436.5C 283.615,431.617 284.282,426.617 285.5,421.5 Z"/></g>
<g><path style="opacity:1" fill="#c33e41" d="M 301.5,420.5 C 300.141,424.253 298.807,427.919 297.5,431.5C 297.507,428.962 297.841,426.462 298.5,424C 298.715,422.092 299.715,420.926 301.5,420.5 Z"/></g>
<g><path style="opacity:1" fill="#2c2754" d="M 502.5,411.5 C 510.479,417.479 517.479,424.479 523.5,432.5C 515.522,438.312 508.689,445.312 503,453.5C 496.386,463.063 490.553,473.063 485.5,483.5C 481.846,486.791 480.513,490.791 481.5,495.5C 474.124,487.459 467.124,479.126 460.5,470.5C 459.37,468.685 458.704,466.685 458.5,464.5C 459.167,463.833 459.833,463.167 460.5,462.5C 462.074,460.898 462.741,458.898 462.5,456.5C 463.906,456.027 464.573,455.027 464.5,453.5C 464.5,452.833 464.5,452.167 464.5,451.5C 466.008,449.819 467.008,447.819 467.5,445.5C 469.395,444.027 471.061,442.36 472.5,440.5C 474.587,439.415 475.92,437.749 476.5,435.5C 476.557,434.391 476.89,433.391 477.5,432.5C 481.167,429.5 484.5,426.167 487.5,422.5C 492.219,418.447 497.219,414.78 502.5,411.5 Z"/></g>
<g><path style="opacity:1" fill="#5a567c" d="M 228.5,417.5 C 228.802,421.79 228.136,425.79 226.5,429.5C 226.198,425.21 226.864,421.21 228.5,417.5 Z"/></g>
<g><path style="opacity:1" fill="#972c1b" d="M 536.5,404.5 C 536.833,404.5 537.167,404.5 537.5,404.5C 540.503,405.666 543.17,407.333 545.5,409.5C 547.14,412.634 548.806,415.8 550.5,419C 549.54,420.419 548.707,421.919 548,423.5C 547.333,429.167 547.333,434.833 548,440.5C 550.412,445.659 553.079,450.659 556,455.5C 557.356,456.38 558.856,456.714 560.5,456.5C 559.154,458.537 557.82,460.537 556.5,462.5C 553.975,461.319 551.475,459.986 549,458.5C 544.377,450.977 540.71,442.977 538,434.5C 537.667,435.833 537.333,437.167 537,438.5C 534.247,434.265 532.58,434.599 532,439.5C 529.427,436.61 528.427,433.277 529,429.5C 533.88,425.797 537.38,421.131 539.5,415.5C 538.652,411.771 537.652,408.104 536.5,404.5 Z"/></g>
<g><path style="opacity:1" fill="#dc2d26" d="M 279.5,403.5 C 278.611,405.736 277.278,407.736 275.5,409.5C 277.984,411.959 279.984,414.626 281.5,417.5C 282.552,417.351 283.552,417.517 284.5,418C 284.167,418.333 283.833,418.667 283.5,419C 284.756,419.417 285.423,420.25 285.5,421.5C 284.282,426.617 283.615,431.617 283.5,436.5C 284.356,439.606 285.356,442.606 286.5,445.5C 286.123,450.079 286.123,454.579 286.5,459C 287.939,459.991 288.939,461.324 289.5,463C 288.892,469.176 290.725,474.676 295,479.5C 295.532,482.264 296.366,484.93 297.5,487.5C 299.385,488.197 299.718,489.197 298.5,490.5C 300.766,493.72 300.766,496.72 298.5,499.5C 287.679,500.495 276.679,500.828 265.5,500.5C 269.982,499.674 274.649,499.174 279.5,499C 274.317,498.823 272.984,496.49 275.5,492C 275,487.5 274.5,483 274,478.5C 273.484,475.966 272.317,473.8 270.5,472C 271.815,470.605 271.481,469.605 269.5,469C 269.833,468.667 270.167,468.333 270.5,468C 267.019,461.872 264.519,455.372 263,448.5C 261.667,447.167 260.333,447.167 259,448.5C 259.866,442.97 260.699,437.304 261.5,431.5C 263.38,425.409 266.047,419.743 269.5,414.5C 272.6,410.644 275.933,406.977 279.5,403.5 Z"/></g>
<g><path style="opacity:1" fill="#f07f21" d="M 258.5,409.5 C 258.141,411.371 257.141,412.871 255.5,414C 255.833,414.167 256.167,414.333 256.5,414.5C 259.833,411.833 263.167,411.833 266.5,414.5C 267.88,412.023 268.88,412.023 269.5,414.5C 266.047,419.743 263.38,425.409 261.5,431.5C 258.588,438.47 256.588,445.804 255.5,453.5C 254.671,460.655 254.171,467.989 254,475.5C 252.302,472.81 250.302,470.477 248,468.5C 243.037,470.654 237.87,472.321 232.5,473.5C 231.585,474.328 230.919,475.328 230.5,476.5C 231.198,477.863 231.198,479.029 230.5,480C 231.167,481 231.833,482 232.5,483C 231.133,485.301 230.466,487.801 230.5,490.5C 230.167,490.5 229.833,490.5 229.5,490.5C 227.977,487.37 227.311,484.037 227.5,480.5C 227.182,475.968 227.515,471.634 228.5,467.5C 229.787,461.941 231.12,456.274 232.5,450.5C 233.578,447.598 234.244,444.598 234.5,441.5C 236.5,438.167 238.5,434.833 240.5,431.5C 241.906,431.027 242.573,430.027 242.5,428.5C 244.74,427.432 246.574,425.766 248,423.5C 248.49,422.207 248.657,420.873 248.5,419.5C 248.427,417.973 249.094,416.973 250.5,416.5C 253.167,414.167 255.833,411.833 258.5,409.5 Z"/></g>
<g><path style="opacity:1" fill="#a33217" d="M 545.5,409.5 C 548.86,412.194 551.86,415.194 554.5,418.5C 559.018,426.217 564.018,433.551 569.5,440.5C 566.5,445.833 563.5,451.167 560.5,456.5C 558.856,456.714 557.356,456.38 556,455.5C 553.079,450.659 550.412,445.659 548,440.5C 547.333,434.833 547.333,429.167 548,423.5C 548.707,421.919 549.54,420.419 550.5,419C 548.806,415.8 547.14,412.634 545.5,409.5 Z"/></g>
<g><path style="opacity:1" fill="#d87e41" d="M 248.5,419.5 C 248.657,420.873 248.49,422.207 248,423.5C 246.574,425.766 244.74,427.432 242.5,428.5C 243.723,424.951 245.723,421.951 248.5,419.5 Z"/></g>
<g><path style="opacity:1" fill="#ad6d4b" d="M 242.5,428.5 C 242.573,430.027 241.906,431.027 240.5,431.5C 240.427,429.973 241.094,428.973 242.5,428.5 Z"/></g>
<g><path style="opacity:1" fill="#40b4cf" d="M 789.5,410.5 C 791.739,415.482 792.739,420.816 792.5,426.5C 792.813,429.247 792.48,431.914 791.5,434.5C 790.021,436.753 788.687,439.087 787.5,441.5C 789.179,431.248 789.846,420.914 789.5,410.5 Z"/></g>
<g><path style="opacity:1" fill="#353c71" d="M 523.5,432.5 C 527.203,436.202 530.537,440.202 533.5,444.5C 530.993,441.964 527.993,441.131 524.5,442C 523.167,442.667 523.167,443.333 524.5,444C 523.5,445 522.5,446 521.5,447C 522.403,450.536 522.736,454.203 522.5,458C 520.645,470.81 520.645,483.477 522.5,496C 521.879,507.046 521.879,518.879 522.5,531.5C 522.36,533.03 521.693,534.03 520.5,534.5C 515.981,531.071 511.648,527.404 507.5,523.5C 506.5,522.167 505.5,520.833 504.5,519.5C 504.528,517.418 503.861,515.584 502.5,514C 502.833,513.667 503.167,513.333 503.5,513C 502.986,510.585 501.986,509.251 500.5,509C 501.418,505.896 500.752,503.062 498.5,500.5C 499.799,497.301 499.799,494.135 498.5,491C 499.802,488.787 500.802,486.454 501.5,484C 499.038,480.555 499.038,476.722 501.5,472.5C 500.902,471.205 500.402,469.872 500,468.5C 498.667,467.167 497.333,467.167 496,468.5C 493,473.833 490,479.167 487,484.5C 486.617,483.944 486.117,483.611 485.5,483.5C 490.553,473.063 496.386,463.063 503,453.5C 508.689,445.312 515.522,438.312 523.5,432.5 Z"/></g>
<g><path style="opacity:1" fill="#c77577" d="M 297.5,432.5 C 297.59,435.152 296.924,437.485 295.5,439.5C 295.5,439.167 295.5,438.833 295.5,438.5C 295.595,436.214 296.262,434.214 297.5,432.5 Z"/></g>
<g><path style="opacity:1" fill="#672f40" d="M 476.5,435.5 C 475.92,437.749 474.587,439.415 472.5,440.5C 473.08,438.251 474.413,436.585 476.5,435.5 Z"/></g>
<g><path style="opacity:1" fill="#d63a24" d="M 433.5,420.5 C 433.833,420.5 434.167,420.5 434.5,420.5C 436.513,425.728 439.68,430.394 444,434.5C 447.94,441.436 452.273,448.103 457,454.5C 459.043,452.523 461.543,451.523 464.5,451.5C 464.5,452.167 464.5,452.833 464.5,453.5C 463.094,453.973 462.427,454.973 462.5,456.5C 460.926,458.102 460.259,460.102 460.5,462.5C 459.833,463.167 459.167,463.833 458.5,464.5C 455.264,458.363 451.764,452.363 448,446.5C 442.262,439.606 436.762,432.606 431.5,425.5C 431.833,424.167 432.167,422.833 432.5,421.5C 433.167,421.5 433.5,421.167 433.5,420.5 Z"/></g>
<g><path style="opacity:1" fill="#403e65" d="M 240.5,421.5 C 237.96,427.937 235.96,434.604 234.5,441.5C 233.503,441.47 232.836,441.97 232.5,443C 231.678,445.434 231.344,447.934 231.5,450.5C 230.293,454.786 229.293,459.12 228.5,463.5C 227.046,466.353 226.046,469.353 225.5,472.5C 224.967,465.517 224.634,458.517 224.5,451.5C 224.298,444.264 224.965,437.264 226.5,430.5C 226.334,438.174 226.5,445.841 227,453.5C 229.869,445.893 232.536,438.226 235,430.5C 236.859,427.436 238.692,424.436 240.5,421.5 Z"/></g>
<g><path style="opacity:1" fill="#49384b" d="M 234.5,441.5 C 234.244,444.598 233.578,447.598 232.5,450.5C 232.167,450.5 231.833,450.5 231.5,450.5C 231.344,447.934 231.678,445.434 232.5,443C 232.836,441.97 233.503,441.47 234.5,441.5 Z"/></g>
<g><path style="opacity:1" fill="#334175" d="M 533.5,444.5 C 537.876,447.874 541.542,451.874 544.5,456.5C 544.733,458.062 545.4,459.395 546.5,460.5C 545.178,460.33 544.011,460.663 543,461.5C 541.604,463.972 540.77,466.638 540.5,469.5C 540.492,474.025 540.825,478.191 541.5,482C 539.027,483.925 539.027,485.758 541.5,487.5C 540.719,491.825 540.719,495.992 541.5,500C 541.241,501.261 540.574,502.261 539.5,503C 540.939,503.991 541.939,505.324 542.5,507C 539.965,509.258 539.632,511.425 541.5,513.5C 540.975,514.192 540.308,514.692 539.5,515C 540.548,516.756 540.548,518.59 539.5,520.5C 540.167,522.5 540.833,524.5 541.5,526.5C 539.867,528.387 540.2,529.887 542.5,531C 543.061,532.566 542.394,533.899 540.5,535C 540.833,535.333 541.167,535.667 541.5,536C 539.164,541.072 539.497,545.738 542.5,550C 541.906,550.464 541.239,550.631 540.5,550.5C 533.539,545.54 526.873,540.206 520.5,534.5C 521.693,534.03 522.36,533.03 522.5,531.5C 521.879,518.879 521.879,507.046 522.5,496C 520.645,483.477 520.645,470.81 522.5,458C 522.736,454.203 522.403,450.536 521.5,447C 522.5,446 523.5,445 524.5,444C 523.167,443.333 523.167,442.667 524.5,442C 527.993,441.131 530.993,441.964 533.5,444.5 Z"/></g>
<g><path style="opacity:1" fill="#de3623" d="M 261.5,431.5 C 260.699,437.304 259.866,442.97 259,448.5C 260.333,447.167 261.667,447.167 263,448.5C 264.519,455.372 267.019,461.872 270.5,468C 270.167,468.333 269.833,468.667 269.5,469C 271.481,469.605 271.815,470.605 270.5,472C 272.317,473.8 273.484,475.966 274,478.5C 274.5,483 275,487.5 275.5,492C 272.984,496.49 274.317,498.823 279.5,499C 274.649,499.174 269.982,499.674 265.5,500.5C 264.508,500.328 263.842,500.662 263.5,501.5C 263.167,501.5 262.833,501.5 262.5,501.5C 262.204,499.597 261.537,497.93 260.5,496.5C 256.093,482.514 254.426,468.18 255.5,453.5C 256.588,445.804 258.588,438.47 261.5,431.5 Z"/></g>
<g><path style="opacity:1" fill="#21d6f0" d="M 761.5,457.5 C 760.535,468.429 757.535,478.762 752.5,488.5C 747.611,496.062 741.611,502.728 734.5,508.5C 727.306,511.497 720.473,510.831 714,506.5C 713.333,507.167 712.667,507.833 712,508.5C 711.758,506.862 710.925,505.362 709.5,504C 711.858,500.452 713.525,496.619 714.5,492.5C 719.632,483.105 722.965,473.105 724.5,462.5C 725.167,460.833 725.833,459.167 726.5,457.5C 726.335,460.85 726.502,464.183 727,467.5C 727.333,466.5 727.667,465.5 728,464.5C 731.225,462.991 733.058,460.824 733.5,458C 735.598,457.986 737.431,458.153 739,458.5C 740.67,456.302 742.67,455.968 745,457.5C 745.374,456.584 745.874,455.75 746.5,455C 750.208,451.188 753.208,446.355 755.5,440.5C 757.667,438.441 759.5,439.108 761,442.5C 761.499,447.489 761.666,452.489 761.5,457.5 Z"/></g>
<g><path style="opacity:1" fill="#c73c3c" d="M 294.5,438.5 C 294.833,438.5 295.167,438.5 295.5,438.5C 295.5,438.833 295.5,439.167 295.5,439.5C 293.929,449.935 294.263,460.269 296.5,470.5C 295.685,469.571 294.852,468.571 294,467.5C 293.218,457.786 293.385,448.12 294.5,438.5 Z"/></g>
<g><path style="opacity:1" fill="#b17042" d="M 231.5,450.5 C 231.833,450.5 232.167,450.5 232.5,450.5C 231.12,456.274 229.787,461.941 228.5,467.5C 228.5,466.167 228.5,464.833 228.5,463.5C 229.293,459.12 230.293,454.786 231.5,450.5 Z"/></g>
<g><path style="opacity:1" fill="#7b273b" d="M 464.5,453.5 C 464.573,455.027 463.906,456.027 462.5,456.5C 462.427,454.973 463.094,453.973 464.5,453.5 Z"/></g>
<g><path style="opacity:1" fill="#5f394e" d="M 544.5,456.5 C 546.587,457.585 547.92,459.251 548.5,461.5C 547.833,461.167 547.167,460.833 546.5,460.5C 545.4,459.395 544.733,458.062 544.5,456.5 Z"/></g>
<g><path style="opacity:1" fill="#6d243d" d="M 462.5,456.5 C 462.741,458.898 462.074,460.898 460.5,462.5C 460.259,460.102 460.926,458.102 462.5,456.5 Z"/></g>
<g><path style="opacity:1" fill="#324779" d="M 546.5,460.5 C 547.167,460.833 547.833,461.167 548.5,461.5C 547.848,465.56 549.515,467.56 553.5,467.5C 553.822,469.722 553.155,471.556 551.5,473C 553.019,474.351 554.352,475.851 555.5,477.5C 557.887,477.912 559.887,478.912 561.5,480.5C 560.167,483.167 560.167,485.833 561.5,488.5C 561.023,489.478 560.357,490.311 559.5,491C 560.308,491.308 560.975,491.808 561.5,492.5C 560.5,493.833 559.5,495.167 558.5,496.5C 561.191,496.563 562.024,498.23 561,501.5C 560.667,500.833 560.333,500.167 560,499.5C 558.309,501.709 558.476,503.542 560.5,505C 558.285,505.17 556.285,505.837 554.5,507C 558.5,507.667 558.5,508.333 554.5,509C 556.167,509.333 557.833,509.667 559.5,510C 557.99,511.351 556.99,513.018 556.5,515C 557.491,516.677 558.491,518.343 559.5,520C 559.167,521.667 558.833,523.333 558.5,525C 559.126,525.75 559.626,526.584 560,527.5C 560.333,527.167 560.667,526.833 561,526.5C 561.81,533.082 561.643,539.582 560.5,546C 561.167,547.667 561.833,549.333 562.5,551C 561.826,552.751 561.493,554.417 561.5,556C 562.981,559.456 564.648,562.789 566.5,566C 565.552,566.483 564.552,566.649 563.5,566.5C 555.258,561.913 547.591,556.58 540.5,550.5C 541.239,550.631 541.906,550.464 542.5,550C 539.497,545.738 539.164,541.072 541.5,536C 541.167,535.667 540.833,535.333 540.5,535C 542.394,533.899 543.061,532.566 542.5,531C 540.2,529.887 539.867,528.387 541.5,526.5C 540.833,524.5 540.167,522.5 539.5,520.5C 540.548,518.59 540.548,516.756 539.5,515C 540.308,514.692 540.975,514.192 541.5,513.5C 539.632,511.425 539.965,509.258 542.5,507C 541.939,505.324 540.939,503.991 539.5,503C 540.574,502.261 541.241,501.261 541.5,500C 540.719,495.992 540.719,491.825 541.5,487.5C 539.027,485.758 539.027,483.925 541.5,482C 540.825,478.191 540.492,474.025 540.5,469.5C 540.77,466.638 541.604,463.972 543,461.5C 544.011,460.663 545.178,460.33 546.5,460.5 Z"/></g>
<g><path style="opacity:1" fill="#38376b" d="M 504.5,519.5 C 496.132,512.133 488.465,504.133 481.5,495.5C 480.513,490.791 481.846,486.791 485.5,483.5C 486.117,483.611 486.617,483.944 487,484.5C 490,479.167 493,473.833 496,468.5C 497.333,467.167 498.667,467.167 500,468.5C 500.402,469.872 500.902,471.205 501.5,472.5C 499.038,476.722 499.038,480.555 501.5,484C 500.802,486.454 499.802,488.787 498.5,491C 499.799,494.135 499.799,497.301 498.5,500.5C 500.752,503.062 501.418,505.896 500.5,509C 501.986,509.251 502.986,510.585 503.5,513C 503.167,513.333 502.833,513.667 502.5,514C 503.861,515.584 504.528,517.418 504.5,519.5 Z"/></g>
<g><path style="opacity:1" fill="#25cae4" d="M 792.5,426.5 C 793.29,427.609 793.79,428.942 794,430.5C 794.667,443.167 794.667,455.833 794,468.5C 793.768,469.737 793.268,470.737 792.5,471.5C 792.649,470.448 792.483,469.448 792,468.5C 785.44,486.297 774.94,501.297 760.5,513.5C 758.83,513.249 757.33,512.582 756,511.5C 754.121,508.47 752.955,505.47 752.5,502.5C 755.594,499.417 758.261,496.084 760.5,492.5C 760.833,491.833 761.167,491.167 761.5,490.5C 772.452,479.177 780.119,465.844 784.5,450.5C 785.64,447.632 786.64,444.632 787.5,441.5C 788.687,439.087 790.021,436.753 791.5,434.5C 792.48,431.914 792.813,429.247 792.5,426.5 Z"/></g>
<g><path style="opacity:1" fill="#5e4751" d="M 228.5,463.5 C 228.5,464.833 228.5,466.167 228.5,467.5C 227.515,471.634 227.182,475.968 227.5,480.5C 226.833,479.167 226.167,477.833 225.5,476.5C 225.5,475.167 225.5,473.833 225.5,472.5C 226.046,469.353 227.046,466.353 228.5,463.5 Z"/></g>
<g><path style="opacity:1" fill="#ef781e" d="M 255.5,453.5 C 254.426,468.18 256.093,482.514 260.5,496.5C 260.5,497.5 260.5,498.5 260.5,499.5C 251.026,496.486 241.359,495.819 231.5,497.5C 231.552,495.097 231.219,492.764 230.5,490.5C 230.466,487.801 231.133,485.301 232.5,483C 231.833,482 231.167,481 230.5,480C 231.198,479.029 231.198,477.863 230.5,476.5C 230.919,475.328 231.585,474.328 232.5,473.5C 237.87,472.321 243.037,470.654 248,468.5C 250.302,470.477 252.302,472.81 254,475.5C 254.171,467.989 254.671,460.655 255.5,453.5 Z"/></g>
<g><path style="opacity:1" fill="#d77b79" d="M 296.5,471.5 C 297.871,473.936 298.871,476.603 299.5,479.5C 297.345,477.383 296.345,474.716 296.5,471.5 Z"/></g>
<g><path style="opacity:1" fill="#f6a11b" d="M 457.5,474.5 C 464.555,484.896 471.221,495.562 477.5,506.5C 473.818,506.335 470.152,506.501 466.5,507C 471.56,518.346 475.56,530.179 478.5,542.5C 477.799,544.753 477.466,546.919 477.5,549C 478.741,550.731 479.741,552.564 480.5,554.5C 477.874,556.823 475.207,559.157 472.5,561.5C 472.33,560.178 472.663,559.011 473.5,558C 469.007,542.582 464.507,526.749 460,510.5C 458.544,508.535 456.71,507.201 454.5,506.5C 457.187,506.664 459.854,506.497 462.5,506C 461.672,505.085 460.672,504.419 459.5,504C 459.833,503.667 460.167,503.333 460.5,503C 456.713,502.84 453.046,502.174 449.5,501C 452.167,500.667 454.833,500.333 457.5,500C 454.167,499.667 450.833,499.333 447.5,499C 448.5,498.667 449.5,498.333 450.5,498C 447.899,497.08 445.232,496.413 442.5,496C 444.25,494.246 444.917,492.079 444.5,489.5C 448.489,484.179 452.822,479.179 457.5,474.5 Z"/></g>
<g><path style="opacity:1" fill="#2d3050" d="M 752.5,488.5 C 752.369,489.239 752.536,489.906 753,490.5C 755.796,489.321 758.629,489.321 761.5,490.5C 761.167,491.167 760.833,491.833 760.5,492.5C 751.791,501.707 741.791,509.207 730.5,515C 729.251,515.74 728.251,515.573 727.5,514.5C 730.432,513.2 732.766,511.2 734.5,508.5C 741.611,502.728 747.611,496.062 752.5,488.5 Z"/></g>
<g><path style="opacity:1" fill="#eb7a38" d="M 229.5,490.5 C 229.833,490.5 230.167,490.5 230.5,490.5C 231.219,492.764 231.552,495.097 231.5,497.5C 241.359,495.819 251.026,496.486 260.5,499.5C 260.5,498.5 260.5,497.5 260.5,496.5C 261.537,497.93 262.204,499.597 262.5,501.5C 262.78,504.388 261.447,505.888 258.5,506C 251.754,506.121 245.087,506.788 238.5,508C 237.549,511.057 237.216,514.223 237.5,517.5C 233.669,508.991 231.002,499.991 229.5,490.5 Z"/></g>
<g><path style="opacity:1" fill="#f49d2a" d="M 444.5,489.5 C 444.917,492.079 444.25,494.246 442.5,496C 445.232,496.413 447.899,497.08 450.5,498C 449.5,498.333 448.5,498.667 447.5,499C 450.833,499.333 454.167,499.667 457.5,500C 454.833,500.333 452.167,500.667 449.5,501C 453.046,502.174 456.713,502.84 460.5,503C 460.167,503.333 459.833,503.667 459.5,504C 460.672,504.419 461.672,505.085 462.5,506C 459.854,506.497 457.187,506.664 454.5,506.5C 451.023,506.04 447.523,505.707 444,505.5C 441.39,505.533 439.223,506.2 437.5,507.5C 433.486,507.334 429.486,507.501 425.5,508C 424.944,508.383 424.611,508.883 424.5,509.5C 423.395,510.6 422.062,511.267 420.5,511.5C 428.174,503.826 436.174,496.493 444.5,489.5 Z"/></g>
<g><path style="opacity:1" fill="#21a9c1" d="M 792.5,471.5 C 791.492,480.55 790.158,489.55 788.5,498.5C 785.934,505.018 783.434,511.685 781,518.5C 778.563,524.392 775.396,529.726 771.5,534.5C 770.391,533.121 769.724,531.455 769.5,529.5C 768.243,522.686 767.41,516.019 767,509.5C 765.223,511.79 763.056,513.457 760.5,514.5C 760.5,514.167 760.5,513.833 760.5,513.5C 774.94,501.297 785.44,486.297 792,468.5C 792.483,469.448 792.649,470.448 792.5,471.5 Z"/></g>
<g><path style="opacity:1" fill="#dd4136" d="M 306.5,494.5 C 309.848,497.851 312.848,501.518 315.5,505.5C 312.555,504.532 309.555,504.366 306.5,505C 304.563,505.122 303.23,505.955 302.5,507.5C 290.5,507.5 278.5,507.5 266.5,507.5C 264.654,505.97 263.654,503.97 263.5,501.5C 263.842,500.662 264.508,500.328 265.5,500.5C 276.679,500.828 287.679,500.495 298.5,499.5C 301.5,499.5 304.5,499.5 307.5,499.5C 307.371,497.784 307.038,496.117 306.5,494.5 Z"/></g>
<g><path style="opacity:1" fill="#d37c1c" d="M 460.5,470.5 C 467.124,479.126 474.124,487.459 481.5,495.5C 488.465,504.133 496.132,512.133 504.5,519.5C 505.5,520.833 506.5,522.167 507.5,523.5C 504.848,527.482 501.848,531.149 498.5,534.5C 491.002,525.486 484.002,516.153 477.5,506.5C 471.221,495.562 464.555,484.896 457.5,474.5C 458.5,473.167 459.5,471.833 460.5,470.5 Z"/></g>
<g><path style="opacity:1" fill="#eb6e21" d="M 262.5,501.5 C 262.833,501.5 263.167,501.5 263.5,501.5C 263.654,503.97 264.654,505.97 266.5,507.5C 267.11,508.391 267.443,509.391 267.5,510.5C 270.24,516.011 268.407,519.344 262,520.5C 260.984,519.366 260.317,519.699 260,521.5C 259.282,520.549 258.449,520.383 257.5,521C 258.328,521.915 259.328,522.581 260.5,523C 255.602,526.968 251.269,531.468 247.5,536.5C 243.979,531.458 240.979,526.125 238.5,520.5C 237.89,519.609 237.557,518.609 237.5,517.5C 237.216,514.223 237.549,511.057 238.5,508C 245.087,506.788 251.754,506.121 258.5,506C 261.447,505.888 262.78,504.388 262.5,501.5 Z"/></g>
<g><path style="opacity:1" fill="#f49916" d="M 454.5,506.5 C 456.71,507.201 458.544,508.535 460,510.5C 464.507,526.749 469.007,542.582 473.5,558C 472.663,559.011 472.33,560.178 472.5,561.5C 469.859,563.804 467.192,566.138 464.5,568.5C 461.74,547.491 455.406,527.657 445.5,509C 442.937,507.921 440.271,507.421 437.5,507.5C 439.223,506.2 441.39,505.533 444,505.5C 447.523,505.707 451.023,506.04 454.5,506.5 Z"/></g>
<g><path style="opacity:1" fill="#f49216" d="M 437.5,507.5 C 440.271,507.421 442.937,507.921 445.5,509C 455.406,527.657 461.74,547.491 464.5,568.5C 460.112,572.221 455.445,575.555 450.5,578.5C 450.5,577.167 450.5,575.833 450.5,574.5C 451.458,574.047 452.292,573.381 453,572.5C 454.011,573.337 455.178,573.67 456.5,573.5C 457.017,568.522 456.517,563.522 455,558.5C 452.704,550.657 450.038,542.99 447,535.5C 442.563,528.062 438.563,520.396 435,512.5C 433.462,511.151 431.629,510.484 429.5,510.5C 427.958,509.699 426.292,509.366 424.5,509.5C 424.611,508.883 424.944,508.383 425.5,508C 429.486,507.501 433.486,507.334 437.5,507.5 Z"/></g>
<g><path style="opacity:1" fill="#f48c16" d="M 429.5,510.5 C 431.629,510.484 433.462,511.151 435,512.5C 438.563,520.396 442.563,528.062 447,535.5C 450.038,542.99 452.704,550.657 455,558.5C 456.517,563.522 457.017,568.522 456.5,573.5C 455.178,573.67 454.011,573.337 453,572.5C 452.292,573.381 451.458,574.047 450.5,574.5C 448.309,564.551 444.975,555.051 440.5,546C 440.833,545.667 441.167,545.333 441.5,545C 435.89,534.949 429.89,525.116 423.5,515.5C 425.162,513.348 427.162,511.682 429.5,510.5 Z"/></g>
<g><path style="opacity:1" fill="#315584" d="M 587.5,498.5 C 594.553,504.22 601.887,509.553 609.5,514.5C 609.539,515.583 609.873,516.583 610.5,517.5C 609.572,521.55 608.905,525.384 608.5,529C 609.328,533.261 609.995,537.261 610.5,541C 609.804,545.134 609.137,549.3 608.5,553.5C 609.522,560.967 609.522,568.467 608.5,576C 609.613,579.371 611.279,582.871 613.5,586.5C 611.257,587.474 608.924,587.808 606.5,587.5C 599.098,585.295 592.098,582.295 585.5,578.5C 587.674,578.92 589.674,578.92 591.5,578.5C 589.55,575.087 587.884,571.087 586.5,566.5C 587.224,549.673 587.557,532.173 587.5,514C 585.928,510.681 585.262,507.348 585.5,504C 588.581,503.009 589.248,501.176 587.5,498.5 Z"/></g>
<g><path style="opacity:1" fill="#f7a814" d="M 477.5,506.5 C 484.002,516.153 491.002,525.486 498.5,534.5C 497.4,535.605 496.733,536.938 496.5,538.5C 491.167,543.833 485.833,549.167 480.5,554.5C 479.741,552.564 478.741,550.731 477.5,549C 477.466,546.919 477.799,544.753 478.5,542.5C 475.56,530.179 471.56,518.346 466.5,507C 470.152,506.501 473.818,506.335 477.5,506.5 Z"/></g>
<g><path style="opacity:1" fill="#f28718" d="M 424.5,509.5 C 426.292,509.366 427.958,509.699 429.5,510.5C 427.162,511.682 425.162,513.348 423.5,515.5C 429.89,525.116 435.89,534.949 441.5,545C 441.167,545.333 440.833,545.667 440.5,546C 444.975,555.051 448.309,564.551 450.5,574.5C 450.5,575.833 450.5,577.167 450.5,578.5C 448.206,580.653 445.54,582.32 442.5,583.5C 438.371,558.246 427.704,536.579 410.5,518.5C 413.167,516.167 415.833,513.833 418.5,511.5C 419.167,511.5 419.833,511.5 420.5,511.5C 422.062,511.267 423.395,510.6 424.5,509.5 Z"/></g>
<g><path style="opacity:1" fill="#29cfeb" d="M 714.5,492.5 C 713.525,496.619 711.858,500.452 709.5,504C 710.925,505.362 711.758,506.862 712,508.5C 712.667,507.833 713.333,507.167 714,506.5C 720.473,510.831 727.306,511.497 734.5,508.5C 732.766,511.2 730.432,513.2 727.5,514.5C 707.39,527.027 685.39,532.36 661.5,530.5C 652.88,529.287 644.213,528.287 635.5,527.5C 633.046,526.773 630.713,525.773 628.5,524.5C 626.847,524.34 625.514,523.674 624.5,522.5C 627.647,522.737 630.647,523.57 633.5,525C 647.742,526.294 661.742,524.96 675.5,521C 691.798,515.849 704.798,506.349 714.5,492.5 Z"/></g>
<g><path style="opacity:1" fill="#f7ece7" d="M 418.5,511.5 C 415.833,513.833 413.167,516.167 410.5,518.5C 406.492,520.837 402.492,523.17 398.5,525.5C 395.843,525.935 393.509,526.935 391.5,528.5C 381.828,528.666 372.161,528.5 362.5,528C 359.964,527.814 357.631,527.314 355.5,526.5C 365.539,527.837 375.539,527.67 385.5,526C 396.799,521.68 407.799,516.847 418.5,511.5 Z"/></g>
<g><path style="opacity:1" fill="#324d7d" d="M 548.5,461.5 C 550.573,463.58 552.907,465.246 555.5,466.5C 556.757,469.427 558.757,471.761 561.5,473.5C 569.533,482.534 578.2,490.867 587.5,498.5C 589.248,501.176 588.581,503.009 585.5,504C 585.262,507.348 585.928,510.681 587.5,514C 587.557,532.173 587.224,549.673 586.5,566.5C 587.884,571.087 589.55,575.087 591.5,578.5C 589.674,578.92 587.674,578.92 585.5,578.5C 577.518,575.512 570.185,571.512 563.5,566.5C 564.552,566.649 565.552,566.483 566.5,566C 564.648,562.789 562.981,559.456 561.5,556C 561.493,554.417 561.826,552.751 562.5,551C 561.833,549.333 561.167,547.667 560.5,546C 561.643,539.582 561.81,533.082 561,526.5C 560.667,526.833 560.333,527.167 560,527.5C 559.626,526.584 559.126,525.75 558.5,525C 558.833,523.333 559.167,521.667 559.5,520C 558.491,518.343 557.491,516.677 556.5,515C 556.99,513.018 557.99,511.351 559.5,510C 557.833,509.667 556.167,509.333 554.5,509C 558.5,508.333 558.5,507.667 554.5,507C 556.285,505.837 558.285,505.17 560.5,505C 558.476,503.542 558.309,501.709 560,499.5C 560.333,500.167 560.667,500.833 561,501.5C 562.024,498.23 561.191,496.563 558.5,496.5C 559.5,495.167 560.5,493.833 561.5,492.5C 560.975,491.808 560.308,491.308 559.5,491C 560.357,490.311 561.023,489.478 561.5,488.5C 560.167,485.833 560.167,483.167 561.5,480.5C 559.887,478.912 557.887,477.912 555.5,477.5C 554.352,475.851 553.019,474.351 551.5,473C 553.155,471.556 553.822,469.722 553.5,467.5C 549.515,467.56 547.848,465.56 548.5,461.5 Z"/></g>
<g><path style="opacity:1" fill="#1bbcdd" d="M 760.5,492.5 C 758.261,496.084 755.594,499.417 752.5,502.5C 752.955,505.47 754.121,508.47 756,511.5C 757.33,512.582 758.83,513.249 760.5,513.5C 760.5,513.833 760.5,514.167 760.5,514.5C 756.143,517.864 751.809,521.198 747.5,524.5C 734.161,531.996 719.828,536.329 704.5,537.5C 704.082,536.778 703.416,536.278 702.5,536C 688.689,534.233 675.022,532.4 661.5,530.5C 685.39,532.36 707.39,527.027 727.5,514.5C 728.251,515.573 729.251,515.74 730.5,515C 741.791,509.207 751.791,501.707 760.5,492.5 Z"/></g>
<g><path style="opacity:1" fill="#ea6620" d="M 267.5,510.5 C 271.805,515.141 276.139,519.807 280.5,524.5C 280.703,526.39 280.037,527.89 278.5,529C 270.515,534.478 263.182,540.645 256.5,547.5C 257.631,548.604 258.465,548.271 259,546.5C 261.364,550.187 263.698,553.854 266,557.5C 267.351,559.019 268.851,560.352 270.5,561.5C 269.873,562.417 269.539,563.417 269.5,564.5C 262.124,556.459 255.124,548.126 248.5,539.5C 248.443,538.391 248.11,537.391 247.5,536.5C 251.269,531.468 255.602,526.968 260.5,523C 259.328,522.581 258.328,521.915 257.5,521C 258.449,520.383 259.282,520.549 260,521.5C 260.317,519.699 260.984,519.366 262,520.5C 268.407,519.344 270.24,516.011 267.5,510.5 Z"/></g>
<g><path style="opacity:1" fill="#d82620" d="M 266.5,507.5 C 278.5,507.5 290.5,507.5 302.5,507.5C 307.52,506.873 312.187,507.706 316.5,510C 318.683,512.891 320.683,515.891 322.5,519C 324.898,519.374 327.231,519.374 329.5,519C 330.258,521.528 330.258,523.861 329.5,526C 331.108,526.658 332.275,526.158 333,524.5C 335.168,525.629 335.668,527.129 334.5,529C 336.329,529.273 337.829,530.107 339,531.5C 339.957,529.291 341.124,529.457 342.5,532C 341.167,533.84 341.334,534.34 343,533.5C 344,534.5 345,535.5 346,536.5C 347.912,535.308 349.912,534.308 352,533.5C 352.333,534.833 352.667,536.167 353,537.5C 354.562,537.259 356.062,537.759 357.5,539C 355.934,539.608 354.6,540.442 353.5,541.5C 339.459,542.975 325.459,542.641 311.5,540.5C 300.205,537.019 289.871,531.686 280.5,524.5C 276.139,519.807 271.805,515.141 267.5,510.5C 267.443,509.391 267.11,508.391 266.5,507.5 Z"/></g>
<g><path style="opacity:1" fill="#cd2c1f" d="M 315.5,505.5 C 324.838,514.671 335.838,521.004 348.5,524.5C 350.515,525.924 352.848,526.59 355.5,526.5C 357.631,527.314 359.964,527.814 362.5,528C 372.161,528.5 381.828,528.666 391.5,528.5C 390.833,529.167 390.167,529.833 389.5,530.5C 386.352,531.576 383.352,532.909 380.5,534.5C 376.747,535.859 373.081,537.193 369.5,538.5C 366.37,538.7 363.37,539.366 360.5,540.5C 358.139,540.674 355.806,541.007 353.5,541.5C 354.6,540.442 355.934,539.608 357.5,539C 356.062,537.759 354.562,537.259 353,537.5C 352.667,536.167 352.333,534.833 352,533.5C 349.912,534.308 347.912,535.308 346,536.5C 345,535.5 344,534.5 343,533.5C 341.334,534.34 341.167,533.84 342.5,532C 341.124,529.457 339.957,529.291 339,531.5C 337.829,530.107 336.329,529.273 334.5,529C 335.668,527.129 335.168,525.629 333,524.5C 332.275,526.158 331.108,526.658 329.5,526C 330.258,523.861 330.258,521.528 329.5,519C 327.231,519.374 324.898,519.374 322.5,519C 320.683,515.891 318.683,512.891 316.5,510C 312.187,507.706 307.52,506.873 302.5,507.5C 303.23,505.955 304.563,505.122 306.5,505C 309.555,504.366 312.555,504.532 315.5,505.5 Z"/></g>
<g><path style="opacity:1" fill="#259db5" d="M 771.5,534.5 C 765.674,544.666 758.341,553.666 749.5,561.5C 749.461,560.417 749.127,559.417 748.5,558.5C 749.729,557.719 751.062,557.219 752.5,557C 750.108,554.727 750.108,552.56 752.5,550.5C 751.888,549.005 751.888,547.338 752.5,545.5C 751.443,541.313 750.443,537.146 749.5,533C 749.833,532.667 750.167,532.333 750.5,532C 749.413,529.433 748.413,526.933 747.5,524.5C 751.809,521.198 756.143,517.864 760.5,514.5C 763.056,513.457 765.223,511.79 767,509.5C 767.41,516.019 768.243,522.686 769.5,529.5C 769.724,531.455 770.391,533.121 771.5,534.5 Z"/></g>
<g><path style="opacity:1" fill="#efbfbb" d="M 348.5,524.5 C 351.152,524.41 353.485,525.076 355.5,526.5C 352.848,526.59 350.515,525.924 348.5,524.5 Z"/></g>
<g><path style="opacity:1" fill="#f18018" d="M 410.5,518.5 C 427.704,536.579 438.371,558.246 442.5,583.5C 440.117,585.358 437.45,586.692 434.5,587.5C 429.925,574.337 424.758,561.337 419,548.5C 413.667,540.5 408.333,532.5 403,524.5C 401.644,525.38 400.144,525.714 398.5,525.5C 402.492,523.17 406.492,520.837 410.5,518.5 Z"/></g>
<g><path style="opacity:1" fill="#2f5b8a" d="M 609.5,514.5 C 614.368,517.434 619.368,520.1 624.5,522.5C 625.514,523.674 626.847,524.34 628.5,524.5C 628.263,525.791 628.596,526.791 629.5,527.5C 631.653,529.93 632.32,532.597 631.5,535.5C 632.293,545.851 633.293,556.185 634.5,566.5C 634.452,572.52 634.452,578.52 634.5,584.5C 635.189,586.444 635.689,588.444 636,590.5C 636.5,591.667 637.333,592.5 638.5,593C 634.559,592.733 630.559,592.566 626.5,592.5C 619.529,591.612 612.862,589.946 606.5,587.5C 608.924,587.808 611.257,587.474 613.5,586.5C 611.279,582.871 609.613,579.371 608.5,576C 609.522,568.467 609.522,560.967 608.5,553.5C 609.137,549.3 609.804,545.134 610.5,541C 609.995,537.261 609.328,533.261 608.5,529C 608.905,525.384 609.572,521.55 610.5,517.5C 609.873,516.583 609.539,515.583 609.5,514.5 Z"/></g>
<g><path style="opacity:1" fill="#2e608d" d="M 629.5,527.5 C 635.543,529.52 641.543,531.854 647.5,534.5C 649.114,552.681 650.281,570.681 651,588.5C 650.946,591.191 652.113,593.024 654.5,594C 648.175,594.5 641.842,594.666 635.5,594.5C 632.219,594.58 629.219,593.913 626.5,592.5C 630.559,592.566 634.559,592.733 638.5,593C 637.333,592.5 636.5,591.667 636,590.5C 635.689,588.444 635.189,586.444 634.5,584.5C 634.452,578.52 634.452,572.52 634.5,566.5C 633.293,556.185 632.293,545.851 631.5,535.5C 632.32,532.597 631.653,529.93 629.5,527.5 Z"/></g>
<g><path style="opacity:1" fill="#f8e1d2" d="M 238.5,520.5 C 240.979,526.125 243.979,531.458 247.5,536.5C 248.11,537.391 248.443,538.391 248.5,539.5C 242.33,534.833 238.996,528.5 238.5,520.5 Z"/></g>
<g><path style="opacity:1" fill="#ea5b1f" d="M 280.5,524.5 C 289.871,531.686 300.205,537.019 311.5,540.5C 312.058,541.79 313.058,542.623 314.5,543C 312.147,544.964 309.647,545.464 307,544.5C 298.723,547.51 290.223,551.01 281.5,555C 278.167,557.667 274.833,560.333 271.5,563C 272.5,563.333 273.5,563.667 274.5,564C 275.833,564.667 275.833,565.333 274.5,566C 276.133,566.48 277.466,567.313 278.5,568.5C 280.545,569.923 281.545,571.923 281.5,574.5C 277.202,571.537 273.202,568.203 269.5,564.5C 269.539,563.417 269.873,562.417 270.5,561.5C 268.851,560.352 267.351,559.019 266,557.5C 263.698,553.854 261.364,550.187 259,546.5C 258.465,548.271 257.631,548.604 256.5,547.5C 263.182,540.645 270.515,534.478 278.5,529C 280.037,527.89 280.703,526.39 280.5,524.5 Z"/></g>
<g><path style="opacity:1" fill="#2e6792" d="M 628.5,524.5 C 630.713,525.773 633.046,526.773 635.5,527.5C 643.409,531.471 651.742,534.471 660.5,536.5C 661.335,537.943 662.668,538.943 664.5,539.5C 666.384,542.899 666.718,546.066 665.5,549C 666.167,550.667 666.833,552.333 667.5,554C 667.167,554.333 666.833,554.667 666.5,555C 667.389,560.821 668.389,566.654 669.5,572.5C 669.291,573.086 668.957,573.586 668.5,574C 669.752,579.341 671.086,584.675 672.5,590C 671.116,591.957 671.783,592.957 674.5,593C 663.61,595.114 652.61,595.948 641.5,595.5C 639.265,595.795 637.265,595.461 635.5,594.5C 641.842,594.666 648.175,594.5 654.5,594C 652.113,593.024 650.946,591.191 651,588.5C 650.281,570.681 649.114,552.681 647.5,534.5C 641.543,531.854 635.543,529.52 629.5,527.5C 628.596,526.791 628.263,525.791 628.5,524.5 Z"/></g>
<g><path style="opacity:1" fill="#21b0d5" d="M 635.5,527.5 C 644.213,528.287 652.88,529.287 661.5,530.5C 675.022,532.4 688.689,534.233 702.5,536C 703.416,536.278 704.082,536.778 704.5,537.5C 702.167,538.167 699.833,538.833 697.5,539.5C 693.5,539.5 689.5,539.5 685.5,539.5C 679.828,539.24 674.161,538.907 668.5,538.5C 666.039,537.469 663.373,536.802 660.5,536.5C 651.742,534.471 643.409,531.471 635.5,527.5 Z"/></g>
<g><path style="opacity:1" fill="#ec6619" d="M 380.5,534.5 C 380.296,537.864 381.13,541.198 383,544.5C 387.026,550.363 390.86,556.363 394.5,562.5C 396.529,561.371 396.863,561.871 395.5,564C 396.473,566.635 398.14,568.635 400.5,570C 399.833,570.333 399.167,570.667 398.5,571C 402.053,576.275 404.886,581.775 407,587.5C 408.677,591.148 409.177,594.815 408.5,598.5C 403.581,600.125 398.581,601.459 393.5,602.5C 395.466,601.166 397.466,599.832 399.5,598.5C 394.177,585.186 388.01,572.853 381,561.5C 375.866,555.383 371.366,548.883 367.5,542C 367.862,540.566 368.528,539.399 369.5,538.5C 373.081,537.193 376.747,535.859 380.5,534.5 Z"/></g>
<g><path style="opacity:1" fill="#288ca8" d="M 747.5,524.5 C 748.413,526.933 749.413,529.433 750.5,532C 750.167,532.333 749.833,532.667 749.5,533C 750.443,537.146 751.443,541.313 752.5,545.5C 751.888,547.338 751.888,549.005 752.5,550.5C 750.108,552.56 750.108,554.727 752.5,557C 751.062,557.219 749.729,557.719 748.5,558.5C 749.127,559.417 749.461,560.417 749.5,561.5C 742.831,567.499 735.498,572.499 727.5,576.5C 725.343,573.554 723.843,570.221 723,566.5C 721.816,558.947 719.816,551.614 717,544.5C 716.503,542.19 716.337,539.857 716.5,537.5C 711.833,538.167 707.167,538.833 702.5,539.5C 700.833,539.5 699.167,539.5 697.5,539.5C 699.833,538.833 702.167,538.167 704.5,537.5C 719.828,536.329 734.161,531.996 747.5,524.5 Z"/></g>
<g><path style="opacity:1" fill="#2b80a0" d="M 727.5,576.5 C 727.167,577.167 726.833,577.833 726.5,578.5C 723.378,579.561 720.378,580.895 717.5,582.5C 717.577,581.25 718.244,580.417 719.5,580C 716.624,580.889 714.124,580.056 712,577.5C 709.363,564.66 706.197,551.994 702.5,539.5C 707.167,538.833 711.833,538.167 716.5,537.5C 716.337,539.857 716.503,542.19 717,544.5C 719.816,551.614 721.816,558.947 723,566.5C 723.843,570.221 725.343,573.554 727.5,576.5 Z"/></g>
<g><path style="opacity:1" fill="#f07918" d="M 434.5,587.5 C 430.962,589.769 427.295,591.769 423.5,593.5C 421.421,593.971 419.421,594.637 417.5,595.5C 417.328,594.508 417.662,593.842 418.5,593.5C 421.15,592.175 423.816,590.842 426.5,589.5C 422.125,580.078 418.292,570.411 415,560.5C 408.272,550.767 401.938,540.767 396,530.5C 395.833,530 395.667,529.5 395.5,529C 396.544,527.826 397.544,526.659 398.5,525.5C 400.144,525.714 401.644,525.38 403,524.5C 408.333,532.5 413.667,540.5 419,548.5C 424.758,561.337 429.925,574.337 434.5,587.5 Z"/></g>
<g><path style="opacity:1" fill="#326f97" d="M 660.5,536.5 C 663.373,536.802 666.039,537.469 668.5,538.5C 672.835,539.991 676.835,542.158 680.5,545C 679.903,546.628 680.237,548.295 681.5,550C 681.167,550.333 680.833,550.667 680.5,551C 682.989,563.142 685.489,575.309 688,587.5C 690.311,588.397 692.144,589.73 693.5,591.5C 676.255,595.895 658.922,597.228 641.5,595.5C 652.61,595.948 663.61,595.114 674.5,593C 671.783,592.957 671.116,591.957 672.5,590C 671.086,584.675 669.752,579.341 668.5,574C 668.957,573.586 669.291,573.086 669.5,572.5C 668.389,566.654 667.389,560.821 666.5,555C 666.833,554.667 667.167,554.333 667.5,554C 666.833,552.333 666.167,550.667 665.5,549C 666.718,546.066 666.384,542.899 664.5,539.5C 662.668,538.943 661.335,537.943 660.5,536.5 Z"/></g>
<g><path style="opacity:1" fill="#e9551c" d="M 311.5,540.5 C 325.459,542.641 339.459,542.975 353.5,541.5C 355.806,541.007 358.139,540.674 360.5,540.5C 358.432,541.375 356.432,542.541 354.5,544C 358.056,548.949 361.223,554.116 364,559.5C 364.333,571.167 364.667,582.833 365,594.5C 365.667,595.833 366.333,595.833 367,594.5C 367.182,591.774 367.682,589.107 368.5,586.5C 371.042,591.26 374.042,595.76 377.5,600C 381.208,602.132 385.208,602.965 389.5,602.5C 387.369,603.314 385.036,603.814 382.5,604C 373.173,604.5 363.839,604.666 354.5,604.5C 354.5,604.167 354.5,603.833 354.5,603.5C 357.85,603.665 361.183,603.498 364.5,603C 363,601.5 361.5,600 360,598.5C 352.629,580.089 339.463,569.089 320.5,565.5C 305.845,559.432 291.845,560.432 278.5,568.5C 277.466,567.313 276.133,566.48 274.5,566C 275.833,565.333 275.833,564.667 274.5,564C 273.5,563.667 272.5,563.333 271.5,563C 274.833,560.333 278.167,557.667 281.5,555C 290.223,551.01 298.723,547.51 307,544.5C 309.647,545.464 312.147,544.964 314.5,543C 313.058,542.623 312.058,541.79 311.5,540.5 Z"/></g>
<g><path style="opacity:1" fill="#f3f9f7" d="M 788.5,498.5 C 788.244,500.792 788.577,502.959 789.5,505C 787.626,509.287 786.126,513.787 785,518.5C 779.866,527.925 774.366,537.091 768.5,546C 769.5,546.667 770.5,546.667 771.5,546C 773.667,543.167 775.833,540.333 778,537.5C 778.654,536.304 779.154,536.304 779.5,537.5C 769.5,554.833 755.833,568.5 738.5,578.5C 737.289,577.726 737.289,576.893 738.5,576C 737.5,575.833 736.5,575.667 735.5,575.5C 732.578,576.797 729.578,577.797 726.5,578.5C 726.833,577.833 727.167,577.167 727.5,576.5C 735.498,572.499 742.831,567.499 749.5,561.5C 758.341,553.666 765.674,544.666 771.5,534.5C 775.396,529.726 778.563,524.392 781,518.5C 783.434,511.685 785.934,505.018 788.5,498.5 Z"/></g>
<g><path style="opacity:1" fill="#2d7399" d="M 668.5,538.5 C 674.161,538.907 679.828,539.24 685.5,539.5C 687.556,540.216 689.723,540.883 692,541.5C 694.739,553.513 697.406,565.846 700,578.5C 701.005,582.21 703.171,584.876 706.5,586.5C 702.424,588.612 698.091,590.279 693.5,591.5C 692.144,589.73 690.311,588.397 688,587.5C 685.489,575.309 682.989,563.142 680.5,551C 680.833,550.667 681.167,550.333 681.5,550C 680.237,548.295 679.903,546.628 680.5,545C 676.835,542.158 672.835,539.991 668.5,538.5 Z"/></g>
<g><path style="opacity:1" fill="#eb5f1a" d="M 369.5,538.5 C 368.528,539.399 367.862,540.566 367.5,542C 371.366,548.883 375.866,555.383 381,561.5C 388.01,572.853 394.177,585.186 399.5,598.5C 397.466,599.832 395.466,601.166 393.5,602.5C 392.167,602.5 390.833,602.5 389.5,602.5C 385.208,602.965 381.208,602.132 377.5,600C 374.042,595.76 371.042,591.26 368.5,586.5C 367.682,589.107 367.182,591.774 367,594.5C 366.333,595.833 365.667,595.833 365,594.5C 364.667,582.833 364.333,571.167 364,559.5C 361.223,554.116 358.056,548.949 354.5,544C 356.432,542.541 358.432,541.375 360.5,540.5C 363.37,539.366 366.37,538.7 369.5,538.5 Z"/></g>
<g><path style="opacity:1" fill="#2c799d" d="M 685.5,539.5 C 689.5,539.5 693.5,539.5 697.5,539.5C 699.167,539.5 700.833,539.5 702.5,539.5C 706.197,551.994 709.363,564.66 712,577.5C 714.124,580.056 716.624,580.889 719.5,580C 718.244,580.417 717.577,581.25 717.5,582.5C 713.979,584.229 710.313,585.562 706.5,586.5C 703.171,584.876 701.005,582.21 700,578.5C 697.406,565.846 694.739,553.513 692,541.5C 689.723,540.883 687.556,540.216 685.5,539.5 Z"/></g>
<g><path style="opacity:1" fill="#ef7318" d="M 398.5,525.5 C 397.544,526.659 396.544,527.826 395.5,529C 395.667,529.5 395.833,530 396,530.5C 401.938,540.767 408.272,550.767 415,560.5C 418.292,570.411 422.125,580.078 426.5,589.5C 423.816,590.842 421.15,592.175 418.5,593.5C 414.247,584.849 410.747,575.849 408,566.5C 401.093,555.694 393.926,545.028 386.5,534.5C 387.91,533.431 388.91,532.097 389.5,530.5C 390.167,529.833 390.833,529.167 391.5,528.5C 393.509,526.935 395.843,525.935 398.5,525.5 Z"/></g>
<g><path style="opacity:1" fill="#ee6d18" d="M 389.5,530.5 C 388.91,532.097 387.91,533.431 386.5,534.5C 393.926,545.028 401.093,555.694 408,566.5C 410.747,575.849 414.247,584.849 418.5,593.5C 417.662,593.842 417.328,594.508 417.5,595.5C 414.843,595.935 412.509,596.935 410.5,598.5C 409.833,598.5 409.167,598.5 408.5,598.5C 409.177,594.815 408.677,591.148 407,587.5C 404.886,581.775 402.053,576.275 398.5,571C 399.167,570.667 399.833,570.333 400.5,570C 398.14,568.635 396.473,566.635 395.5,564C 396.863,561.871 396.529,561.371 394.5,562.5C 390.86,556.363 387.026,550.363 383,544.5C 381.13,541.198 380.296,537.864 380.5,534.5C 383.352,532.909 386.352,531.576 389.5,530.5 Z"/></g>
<g><path style="opacity:1" fill="#e84d1e" d="M 354.5,603.5 C 349.848,603.002 345.181,602.669 340.5,602.5C 336.603,601.945 332.937,600.945 329.5,599.5C 327.485,598.076 325.152,597.41 322.5,597.5C 307.157,592.666 293.49,584.999 281.5,574.5C 281.545,571.923 280.545,569.923 278.5,568.5C 291.845,560.432 305.845,559.432 320.5,565.5C 339.463,569.089 352.629,580.089 360,598.5C 361.5,600 363,601.5 364.5,603C 361.183,603.498 357.85,603.665 354.5,603.5 Z"/></g>
<g><path style="opacity:1" fill="#f8f1e3" d="M 496.5,538.5 C 494.834,541.249 493.668,544.249 493,547.5C 481.712,559.71 469.546,570.876 456.5,581C 451.6,584.08 446.6,586.913 441.5,589.5C 435.423,590.855 429.423,592.188 423.5,593.5C 427.295,591.769 430.962,589.769 434.5,587.5C 437.45,586.692 440.117,585.358 442.5,583.5C 445.54,582.32 448.206,580.653 450.5,578.5C 455.445,575.555 460.112,572.221 464.5,568.5C 467.192,566.138 469.859,563.804 472.5,561.5C 475.207,559.157 477.874,556.823 480.5,554.5C 485.833,549.167 491.167,543.833 496.5,538.5 Z"/></g>
<g><path style="opacity:1" fill="#f8f5f1" d="M 225.5,476.5 C 226.167,477.833 226.833,479.167 227.5,480.5C 227.311,484.037 227.977,487.37 229.5,490.5C 231.002,499.991 233.669,508.991 237.5,517.5C 237.557,518.609 237.89,519.609 238.5,520.5C 238.996,528.5 242.33,534.833 248.5,539.5C 255.124,548.126 262.124,556.459 269.5,564.5C 273.202,568.203 277.202,571.537 281.5,574.5C 293.49,584.999 307.157,592.666 322.5,597.5C 324.515,598.924 326.848,599.59 329.5,599.5C 332.937,600.945 336.603,601.945 340.5,602.5C 344.919,603.972 349.586,604.638 354.5,604.5C 364.658,605.659 374.992,605.825 385.5,605C 394.578,603.964 403.578,602.631 412.5,601C 413.381,600.292 414.047,599.458 414.5,598.5C 417.628,597.017 420.628,595.351 423.5,593.5C 429.423,592.188 435.423,590.855 441.5,589.5C 426.53,598.771 410.197,604.604 392.5,607C 383.268,607.732 374.101,608.565 365,609.5C 350.104,607.609 335.437,604.609 321,600.5C 320.586,600.957 320.086,601.291 319.5,601.5C 316.724,601.054 314.224,600.054 312,598.5C 310.251,599.299 308.918,598.632 308,596.5C 305.71,597.275 303.876,596.442 302.5,594C 289.168,588.475 277.668,580.975 268,571.5C 267.667,570.5 267.333,569.5 267,568.5C 256.209,560.374 247.543,550.374 241,538.5C 236.421,529.176 232.254,519.676 228.5,510C 230.823,507.08 231.156,503.914 229.5,500.5C 228.5,500.5 227.5,500.5 226.5,500.5C 225.851,492.713 225.517,484.713 225.5,476.5 Z"/></g>
<g><path style="opacity:1" fill="#f3f4f1" d="M 474.5,574.5 C 475.525,574.897 475.692,575.563 475,576.5C 444.174,614.095 405.507,628.095 359,618.5C 357.832,615.107 358.666,612.441 361.5,610.5C 403.336,614.244 441.003,602.244 474.5,574.5 Z"/></g>
<g><path style="opacity:1" fill="#f4cea6" d="M 423.5,593.5 C 420.628,595.351 417.628,597.017 414.5,598.5C 413.167,598.5 411.833,598.5 410.5,598.5C 412.509,596.935 414.843,595.935 417.5,595.5C 419.421,594.637 421.421,593.971 423.5,593.5 Z"/></g>
<g><path style="opacity:1" fill="#de7252" d="M 322.5,597.5 C 325.152,597.41 327.485,598.076 329.5,599.5C 326.848,599.59 324.515,598.924 322.5,597.5 Z"/></g>
<g><path style="opacity:1" fill="#f4d4bc" d="M 408.5,598.5 C 409.167,598.5 409.833,598.5 410.5,598.5C 411.833,598.5 413.167,598.5 414.5,598.5C 414.047,599.458 413.381,600.292 412.5,601C 403.578,602.631 394.578,603.964 385.5,605C 374.992,605.825 364.658,605.659 354.5,604.5C 363.839,604.666 373.173,604.5 382.5,604C 385.036,603.814 387.369,603.314 389.5,602.5C 390.833,602.5 392.167,602.5 393.5,602.5C 398.581,601.459 403.581,600.125 408.5,598.5 Z"/></g>
<g><path style="opacity:1" fill="#df7d58" d="M 340.5,602.5 C 345.181,602.669 349.848,603.002 354.5,603.5C 354.5,603.833 354.5,604.167 354.5,604.5C 349.586,604.638 344.919,603.972 340.5,602.5 Z"/></g>
<g><path style="opacity:1" fill="#f4f4f3" d="M 545.5,576.5 C 545.897,575.475 546.563,575.308 547.5,576C 582.462,604.413 622.462,616.079 667.5,611C 665.792,613.043 663.792,614.71 661.5,616C 625.444,621.819 592.777,613.819 563.5,592C 561.606,590.899 560.939,589.566 561.5,588C 555.73,584.723 550.397,580.89 545.5,576.5 Z"/></g>
<g><path style="opacity:1" fill="#2e3333" d="M 360.5,650.5 C 376.5,670.167 392.5,689.833 408.5,709.5C 408.783,710.289 409.283,710.956 410,711.5C 410.5,691.169 410.667,670.836 410.5,650.5C 419.167,650.5 427.833,650.5 436.5,650.5C 436.5,686.5 436.5,722.5 436.5,758.5C 429.492,758.666 422.492,758.5 415.5,758C 399.621,738.959 383.954,719.793 368.5,700.5C 368.217,699.711 367.717,699.044 367,698.5C 366.5,718.497 366.333,738.497 366.5,758.5C 358.833,758.5 351.167,758.5 343.5,758.5C 343.5,722.5 343.5,686.5 343.5,650.5C 349.167,650.5 354.833,650.5 360.5,650.5 Z"/></g>
<g><path style="opacity:1" fill="#2e3232" d="M 688.5,719.5 C 689.498,696.673 689.831,673.673 689.5,650.5C 698.167,650.5 706.833,650.5 715.5,650.5C 715.667,674.502 715.5,698.502 715,722.5C 709.385,748.006 693.385,761.006 667,761.5C 641.064,760.224 625.731,746.891 621,721.5C 620.5,697.836 620.333,674.169 620.5,650.5C 629.167,650.5 637.833,650.5 646.5,650.5C 646.333,674.169 646.5,697.836 647,721.5C 651.109,733.973 659.609,738.806 672.5,736C 682.144,734.525 687.477,729.025 688.5,719.5 Z"/></g>
<g><path style="opacity:1" fill="#2d3132" d="M 811.5,650.5 C 842.353,655.874 854.52,673.874 848,704.5C 844.564,714.269 838.064,721.102 828.5,725C 822.343,727.289 816.009,728.789 809.5,729.5C 801.5,729.5 793.5,729.5 785.5,729.5C 785.5,739.167 785.5,748.833 785.5,758.5C 776.833,758.5 768.167,758.5 759.5,758.5C 759.5,722.5 759.5,686.5 759.5,650.5C 776.833,650.5 794.167,650.5 811.5,650.5 Z"/></g>
<g><path style="opacity:1" fill="#343839" d="M 581.5,756.5 C 581.611,757.117 581.944,757.617 582.5,758C 572.506,758.5 562.506,758.666 552.5,758.5C 545.69,750.226 539.356,741.559 533.5,732.5C 533.945,729.635 533.278,727.135 531.5,725C 534.221,723.349 534.554,721.682 532.5,720C 532.364,711.774 532.364,703.44 532.5,695C 531.846,690.17 531.013,685.337 530,680.5C 528.933,679.809 527.766,679.309 526.5,679C 527.252,678.329 527.586,677.496 527.5,676.5C 533.616,667.877 539.95,659.377 546.5,651C 556.833,650.333 567.167,650.333 577.5,651C 564.642,665.909 552.642,681.409 541.5,697.5C 554.824,717.16 568.157,736.827 581.5,756.5 Z"/></g>
<g><path style="opacity:1" fill="#858787" d="M 811.5,650.5 C 794.167,650.5 776.833,650.5 759.5,650.5C 759.5,686.5 759.5,722.5 759.5,758.5C 758.502,722.337 758.168,686.004 758.5,649.5C 776.341,649.17 794.008,649.503 811.5,650.5 Z"/></g>
<g><path style="opacity:1" fill="#e2e3e3" d="M 410.5,650.5 C 410.667,670.836 410.5,691.169 410,711.5C 409.283,710.956 408.783,710.289 408.5,709.5C 409.167,689.833 409.833,670.167 410.5,650.5 Z"/></g>
<g><path style="opacity:1" fill="#b2b4b4" d="M 478.5,650.5 C 487.652,649.506 496.985,649.173 506.5,649.5C 506.17,667.341 506.503,685.008 507.5,702.5C 507.44,703.043 507.107,703.376 506.5,703.5C 505.5,685.846 505.167,668.179 505.5,650.5C 501.5,650.5 497.5,650.5 493.5,650.5C 488.833,650.5 484.167,650.5 479.5,650.5C 479.167,650.5 478.833,650.5 478.5,650.5 Z"/></g>
<g><path style="opacity:1" fill="#f9f9f9" d="M 785.5,671.5 C 794.915,671.083 804.248,671.583 813.5,673C 823.048,677.6 826.548,685.1 824,695.5C 821.807,702.017 817.307,705.85 810.5,707C 802.173,707.5 793.84,707.666 785.5,707.5C 785.5,695.5 785.5,683.5 785.5,671.5 Z"/></g>
<g><path style="opacity:1" fill="#3b3f41" d="M 478.5,650.5 C 478.833,650.5 479.167,650.5 479.5,650.5C 479.5,686.167 479.5,721.833 479.5,757.5C 483.833,757.5 488.167,757.5 492.5,757.5C 492.174,721.76 492.507,686.094 493.5,650.5C 497.5,650.5 501.5,650.5 505.5,650.5C 505.167,668.179 505.5,685.846 506.5,703.5C 507.107,703.376 507.44,703.043 507.5,702.5C 513.815,693.524 520.481,684.857 527.5,676.5C 527.586,677.496 527.252,678.329 526.5,679C 527.766,679.309 528.933,679.809 530,680.5C 531.013,685.337 531.846,690.17 532.5,695C 532.364,703.44 532.364,711.774 532.5,720C 534.554,721.682 534.221,723.349 531.5,725C 533.278,727.135 533.945,729.635 533.5,732.5C 530.197,728.349 527.03,724.015 524,719.5C 523.163,717.993 521.996,717.493 520.5,718C 515.667,724.167 510.833,730.333 506,736.5C 505.5,743.826 505.334,751.159 505.5,758.5C 496.5,758.5 487.5,758.5 478.5,758.5C 478.5,722.5 478.5,686.5 478.5,650.5 Z"/></g>
<g><path style="opacity:1" fill="#2e3234" d="M 479.5,650.5 C 484.167,650.5 488.833,650.5 493.5,650.5C 492.507,686.094 492.174,721.76 492.5,757.5C 488.167,757.5 483.833,757.5 479.5,757.5C 479.5,721.833 479.5,686.167 479.5,650.5 Z"/></g>
<g><path style="opacity:1" fill="#abadac" d="M 715.5,650.5 C 706.833,650.5 698.167,650.5 689.5,650.5C 689.831,673.673 689.498,696.673 688.5,719.5C 688.5,696.167 688.5,672.833 688.5,649.5C 697.682,649.173 706.682,649.507 715.5,650.5 Z"/></g>
<g><path style="opacity:1" fill="#404242" d="M 273.5,650.5 C 273.5,686.167 273.5,721.833 273.5,757.5C 281.5,757.5 289.5,757.5 297.5,757.5C 297.5,721.833 297.5,686.167 297.5,650.5C 297.833,650.5 298.167,650.5 298.5,650.5C 298.5,686.5 298.5,722.5 298.5,758.5C 289.833,758.5 281.167,758.5 272.5,758.5C 272.168,722.329 272.502,686.329 273.5,650.5 Z"/></g>
<g><path style="opacity:1" fill="#2c3030" d="M 273.5,650.5 C 281.5,650.5 289.5,650.5 297.5,650.5C 297.5,686.167 297.5,721.833 297.5,757.5C 289.5,757.5 281.5,757.5 273.5,757.5C 273.5,721.833 273.5,686.167 273.5,650.5 Z"/></g>
<g><path style="opacity:1" fill="#888a8a" d="M 189.5,735.5 C 189.167,735.5 188.833,735.5 188.5,735.5C 188.5,707.167 188.5,678.833 188.5,650.5C 179.833,650.5 171.167,650.5 162.5,650.5C 162.5,686.5 162.5,722.5 162.5,758.5C 161.502,722.337 161.168,686.004 161.5,649.5C 170.833,649.5 180.167,649.5 189.5,649.5C 189.5,678.167 189.5,706.833 189.5,735.5 Z"/></g>
<g><path style="opacity:1" fill="#868888" d="M 360.5,650.5 C 354.833,650.5 349.167,650.5 343.5,650.5C 343.5,686.5 343.5,722.5 343.5,758.5C 342.502,722.337 342.168,686.004 342.5,649.5C 348.69,649.177 354.69,649.51 360.5,650.5 Z"/></g>
<g><path style="opacity:1" fill="#2b3030" d="M 188.5,735.5 C 204.658,736.496 220.991,736.83 237.5,736.5C 237.5,743.833 237.5,751.167 237.5,758.5C 212.5,758.5 187.5,758.5 162.5,758.5C 162.5,722.5 162.5,686.5 162.5,650.5C 171.167,650.5 179.833,650.5 188.5,650.5C 188.5,678.833 188.5,707.167 188.5,735.5 Z"/></g>
<g><path style="opacity:1" fill="#c2c3c2" d="M 298.5,650.5 C 298.167,650.5 297.833,650.5 297.5,650.5C 289.5,650.5 281.5,650.5 273.5,650.5C 272.502,686.329 272.168,722.329 272.5,758.5C 271.502,722.337 271.168,686.004 271.5,649.5C 280.682,649.173 289.682,649.507 298.5,650.5 Z"/></g>
<g><path style="opacity:1" fill="#505353" d="M 188.5,735.5 C 188.833,735.5 189.167,735.5 189.5,735.5C 205.833,735.5 222.167,735.5 238.5,735.5C 238.825,743.352 238.492,751.018 237.5,758.5C 237.5,751.167 237.5,743.833 237.5,736.5C 220.991,736.83 204.658,736.496 188.5,735.5 Z"/></g>
<g><path style="opacity:1" fill="#c3c4c4" d="M 809.5,729.5 C 802.018,730.492 794.352,730.825 786.5,730.5C 786.827,740.015 786.494,749.348 785.5,758.5C 785.5,748.833 785.5,739.167 785.5,729.5C 793.5,729.5 801.5,729.5 809.5,729.5 Z"/></g>
<g><path style="opacity:1" fill="#a3a5a5" d="M 368.5,700.5 C 367.503,719.993 367.17,739.66 367.5,759.5C 359.316,759.826 351.316,759.492 343.5,758.5C 351.167,758.5 358.833,758.5 366.5,758.5C 366.333,738.497 366.5,718.497 367,698.5C 367.717,699.044 368.217,699.711 368.5,700.5 Z"/></g>
<g><path style="opacity:1" fill="#abadad" d="M 581.5,756.5 C 583.048,756.821 583.715,757.821 583.5,759.5C 572.986,759.828 562.653,759.494 552.5,758.5C 562.506,758.666 572.506,758.5 582.5,758C 581.944,757.617 581.611,757.117 581.5,756.5 Z"/></g>
</svg>
