<?xml version="1.0" encoding="UTF-8"?>
<svg version="1.1" xmlns="http://www.w3.org/2000/svg" width="620" height="620">
<path d="M0 0 C204.6 0 409.2 0 620 0 C620 206.58 620 413.16 620 620 C415.4 620 210.8 620 0 620 C0 419.42 0 212.84 0 0 Z " fill="#FDFDFD" transform="translate(0,0)"/>
<path d="M0 0 C4.19388833 2.0252804 8.30329104 4.17519704 11.06640625 8.01953125 C12.20017087 12.21029528 12.21351683 16.36041987 12.21116638 20.67053223 C12.21645665 21.81474365 12.21645665 21.81474365 12.22185379 22.98207045 C12.23251509 25.53427712 12.23621738 28.08644643 12.23999023 30.63867188 C12.24629778 32.47051144 12.25306381 34.30234948 12.26025391 36.13418579 C12.27491403 40.07867616 12.28664307 44.02316064 12.29620171 47.96766663 C12.31167759 54.21378333 12.33562906 60.45984972 12.36109924 66.70593262 C12.43223206 84.46765965 12.49196963 102.22941578 12.54321289 119.99121094 C12.57159048 129.80135364 12.60701436 139.61144654 12.64986664 149.42153692 C12.67652426 155.62068333 12.6945002 161.81977344 12.70590389 168.01896572 C12.71508438 171.8917221 12.73247201 175.76441064 12.75208282 179.63712692 C12.7595036 181.42159829 12.76363605 183.20608714 12.76407814 184.99057388 C12.77559234 210.72352007 17.63477724 235.5112246 36.24609375 254.43359375 C43.74407439 261.3084735 51.55181346 266.40014725 61.06640625 270.01953125 C62.25363281 270.4990625 62.25363281 270.4990625 63.46484375 270.98828125 C69.77583897 273.1383995 76.02394158 273.32692138 82.62890625 273.39453125 C83.50337402 273.40846924 84.3778418 273.42240723 85.27880859 273.43676758 C101.09378279 273.3225961 115.4376985 265.74356785 126.44921875 254.765625 C145.64795101 234.62128354 146.48500958 213.13207917 146.57763672 186.75952148 C146.63817442 174.81433175 146.72908214 163.57879933 150.06640625 152.01953125 C150.37666748 150.93792725 150.68692871 149.85632324 151.0065918 148.74194336 C158.0382122 125.28549679 174.91686169 108.15431966 195.80859375 96.48828125 C211.4595619 88.68658284 230.44477451 86.30012453 247.3984375 90.76953125 C275.3431209 100.29274604 275.3431209 100.29274604 283.06640625 111.01953125 C285.93164909 118.14769637 286.25121217 126.02081128 284.06640625 133.39453125 C279.9242529 138.83110752 274.57313381 143.71506524 268.06640625 146.01953125 C258.36776271 146.95810966 252.14737098 143.42551256 244.55859375 137.640625 C237.35814675 132.95694866 229.36152488 133.32607689 221.06640625 134.01953125 C217.66272283 134.85420839 215.00561586 136.12923804 212.06640625 138.01953125 C211.3084375 138.50550781 210.55046875 138.99148437 209.76953125 139.4921875 C199.00672339 147.13089174 193.33529267 158.19258351 191.06640625 171.01953125 C190.96844828 172.56552624 190.91174549 174.11459449 190.89282227 175.66357422 C190.87258751 177.00184769 190.87258751 177.00184769 190.85194397 178.36715698 C190.84150558 179.32236237 190.8310672 180.27756775 190.8203125 181.26171875 C190.78733672 183.31901407 190.75412578 185.37630564 190.72070312 187.43359375 C190.67363682 190.64970984 190.62926036 193.86581505 190.58959961 197.08203125 C190.17418587 229.24052724 185.22931898 256.39903747 163.06640625 281.01953125 C162.40640625 281.76074219 161.74640625 282.50195312 161.06640625 283.265625 C144.12190004 301.23801486 118.4061346 313.70362267 93.70507812 315.22680664 C90.07291324 315.3230379 86.44979857 315.3486644 82.81640625 315.33203125 C80.88825073 315.32357178 80.88825073 315.32357178 78.92114258 315.31494141 C49.05862553 314.93250126 21.9939058 301.59078469 0.62890625 281.01953125 C-22.80884018 256.32759104 -33.60064306 225.70706431 -33.46704102 192.10498047 C-33.47412142 190.19561606 -33.48287521 188.28625725 -33.4931488 186.37690735 C-33.51539712 181.25559641 -33.51276407 176.13459797 -33.50382733 171.0132575 C-33.49867593 166.72096972 -33.50604214 162.42873855 -33.51329941 158.13645661 C-33.53021512 148.01344549 -33.52681112 137.89058549 -33.51000977 127.76757812 C-33.49303547 117.34542744 -33.50901464 106.92369399 -33.54123265 96.5015887 C-33.56794099 87.51936696 -33.57520298 78.53727504 -33.56671757 69.55501759 C-33.56179956 64.20443944 -33.56394538 58.85411308 -33.58450508 53.50356674 C-33.60288594 48.48156891 -33.59687405 43.46017328 -33.57230568 38.43820763 C-33.56730847 36.60043448 -33.57075914 34.76261517 -33.58345413 32.92487907 C-33.6520304 22.14258331 -33.32455118 14.03290835 -25.8359375 5.6796875 C-25.18753906 5.15246094 -24.53914062 4.62523438 -23.87109375 4.08203125 C-23.22011719 3.53675781 -22.56914062 2.99148437 -21.8984375 2.4296875 C-15.39863028 -2.23518408 -7.56091972 -2.52701844 0 0 Z " fill="#ED6D2F" transform="translate(260.93359375,96.98046875)"/>
<path d="M0 0 C1.05380859 0.39348633 1.05380859 0.39348633 2.12890625 0.79492188 C24.79972208 9.50001414 46.23140727 25.04894991 59 46 C59.59167969 46.93199219 60.18335938 47.86398438 60.79296875 48.82421875 C65.14604536 55.92465288 68.30212597 63.13198409 71 71 C71.35964844 72.02738281 71.71929687 73.05476563 72.08984375 74.11328125 C77.13615633 89.40456052 78.45141291 104.32515793 78.43579102 120.30444336 C78.44479369 122.17248121 78.45500758 124.04051355 78.46632385 125.90853882 C78.49254944 130.92666918 78.4998449 135.94464564 78.50177121 140.96283793 C78.50391683 144.10533824 78.51034568 147.24780045 78.51826286 150.39029121 C78.54590855 161.37260515 78.55827988 172.35481061 78.5559082 183.3371582 C78.55410112 193.54798079 78.58587804 203.75833039 78.63313919 213.96903318 C78.67240359 222.76778348 78.68845868 231.56637911 78.68654197 240.36521631 C78.68577916 245.60694368 78.69421686 250.84824821 78.72607613 256.08988762 C78.75519084 261.01260211 78.75530964 265.93449077 78.73352623 270.85723495 C78.73039915 272.65751292 78.73741551 274.45784309 78.7556076 276.25803185 C78.84742647 285.9764752 78.83158727 294.33370423 72 302 C65.53959758 307.98307477 59.37505898 310.53453604 50.5234375 310.30859375 C43.63460876 309.46615184 39.35766854 305.86324848 35.12890625 300.5859375 C32.6086431 297.04536021 32.85574786 293.87011903 32.86196899 289.67420959 C32.85914771 288.91003155 32.85632643 288.1458535 32.85341966 287.35851854 C32.84504974 284.78335446 32.84373329 282.20823324 32.84228516 279.63305664 C32.83761815 277.79169086 32.83247478 275.95032623 32.82688904 274.10896301 C32.81558981 270.13332794 32.80716393 266.15770045 32.80076981 262.18205452 C32.79008744 255.87992188 32.76983672 249.57784291 32.74765015 243.27574158 C32.68575078 225.35060111 32.6318807 207.42546227 32.59863281 189.50024414 C32.58020321 179.60764557 32.55115418 169.71513557 32.5106281 159.82260221 C32.48967836 154.59336779 32.47411824 149.36424447 32.47182083 144.1349659 C32.46965034 139.19945482 32.45354039 134.26417408 32.42743111 129.32873344 C32.42032405 127.53227388 32.41809448 125.73578613 32.42153358 123.9393158 C32.44630985 108.51478455 32.0032915 92.0567858 25 78 C24.44505859 76.7625 24.44505859 76.7625 23.87890625 75.5 C16.06422609 58.69203218 1.77239898 46.53531825 -15.265625 39.6875 C-25.55389922 36.37184765 -36.27425374 35.75537749 -47 35 C-47 35.66 -47 36.32 -47 37 C-48.19882812 37.20302734 -48.19882812 37.20302734 -49.421875 37.41015625 C-64.43889276 40.35363274 -76.68763653 48.43850699 -85.75 60.8125 C-95.956915 76.43582037 -99.12112826 92.40388872 -99.140625 110.83203125 C-99.15897234 112.95248453 -99.17854439 115.0729275 -99.19921875 117.19335938 C-99.22795077 120.48609741 -99.24999486 123.77817412 -99.25048828 127.07104492 C-99.27835722 153.42112758 -104.75431104 175.5686065 -122 196 C-122.61230469 196.72574219 -123.22460938 197.45148438 -123.85546875 198.19921875 C-136.37124458 211.78243815 -156.53319899 221.24230931 -174.84375 222.38671875 C-191.24662066 222.95664766 -210.20759528 220.05895708 -223 209 C-227.47430332 203.88651049 -227.3573752 198.5490603 -227.26953125 191.96875 C-226.61376721 184.74584171 -222.26564309 180.96968128 -217 176.3828125 C-214.90567001 174.93477965 -213.49199188 174.41533198 -211 174 C-210.33484375 173.8865625 -209.6696875 173.773125 -208.984375 173.65625 C-202.82778417 173.22571917 -198.66123505 174.87107562 -193.25 177.5 C-185.78222792 181.0829012 -179.36162566 182.50837169 -171 181 C-168.3794452 179.70266715 -168.3794452 179.70266715 -166 178 C-165.19820312 177.51402344 -164.39640625 177.02804688 -163.5703125 176.52734375 C-151.43136499 168.63508874 -145.6527889 156.41480837 -142.43809509 142.58215332 C-142.00426048 140.02511144 -141.85583331 137.64029059 -141.82641602 135.04882812 C-141.81292618 134.09012817 -141.79943634 133.13142822 -141.78553772 132.14367676 C-141.77509933 131.11657593 -141.76466095 130.0894751 -141.75390625 129.03125 C-141.72094295 126.8281214 -141.68773175 124.6249965 -141.65429688 122.421875 C-141.60712472 118.97073114 -141.5627245 115.5195995 -141.52319336 112.06835938 C-141.22570177 87.28570703 -141.22570177 87.28570703 -139 77 C-138.73960937 75.75605469 -138.47921875 74.51210937 -138.2109375 73.23046875 C-130.7666491 46.13186752 -112.83126918 23.64128703 -89 9 C-62.34968089 -5.93805305 -29.06511706 -10.98803206 0 0 Z " fill="#BD4169" transform="translate(300,21)"/>
<path d="M0 0 C0.85551956 -0.01591187 1.71103912 -0.03182373 2.59248352 -0.04821777 C3.51740097 -0.04841919 4.44231842 -0.04862061 5.39526367 -0.04882812 C6.35663742 -0.05644165 7.31801117 -0.06405518 8.30851746 -0.07189941 C10.35034594 -0.08271688 12.39222983 -0.08554686 14.43408203 -0.08105469 C17.513924 -0.08009351 20.59117949 -0.12146089 23.6706543 -0.16601562 C38.57658443 -0.25816204 51.52624232 0.88433715 62.75463867 11.87304688 C65.98971745 16.00077949 67.44149823 20.39707373 68.75073242 25.41992188 C69.24573242 26.90492188 69.24573242 26.90492188 69.75073242 28.41992188 C70.58152048 40.41841868 69.70368935 52.83080974 61.75073242 62.41992188 C54.98412843 69.77558291 47.31633847 73.42666763 37.30541992 74.02929688 C35.07932669 74.09477021 32.85260614 74.14143861 30.62573242 74.16992188 C29.4784668 74.19957031 28.33120117 74.22921875 27.14916992 74.25976562 C24.3496232 74.32975429 21.55087481 74.38279999 18.75073242 74.41992188 C18.7361499 75.4947583 18.72156738 76.56959473 18.70654297 77.67700195 C18.64858352 81.66366904 18.57135113 85.64976988 18.48828125 89.63598633 C18.4550207 91.3614788 18.42699224 93.08708037 18.40429688 94.81274414 C18.37077089 97.29295353 18.31845836 99.77216218 18.26245117 102.25195312 C18.25286629 103.40991142 18.25286629 103.40991142 18.24308777 104.59126282 C18.09820836 109.86496913 18.09820836 109.86496913 16.50610352 112.40771484 C14.25599508 113.70520435 12.7469501 113.79275556 10.15307617 113.78320312 C9.26942383 113.78255859 8.38577148 113.78191406 7.4753418 113.78125 C6.5555957 113.76513672 5.63584961 113.74902344 4.68823242 113.73242188 C3.3028125 113.73725586 3.3028125 113.73725586 1.8894043 113.7421875 C-4.98221585 113.68697361 -4.98221585 113.68697361 -7.24926758 111.41992188 C-7.50374317 109.49553013 -7.50374317 109.49553013 -7.50996399 107.09950256 C-7.5205912 105.73878883 -7.5205912 105.73878883 -7.53143311 104.35058594 C-7.52895569 103.35260986 -7.52647827 102.35463379 -7.52392578 101.32641602 C-7.53159218 99.75312782 -7.53159218 99.75312782 -7.53941345 98.14805603 C-7.55335938 94.667006 -7.55234892 91.18615284 -7.55004883 87.70507812 C-7.55393301 85.29373602 -7.5582671 82.8823946 -7.56303406 80.47105408 C-7.57050704 75.4111001 -7.57019718 70.35121589 -7.56494141 65.29125977 C-7.55914543 58.79641109 -7.57607591 52.30184746 -7.59928608 45.80704594 C-7.61399438 40.82545798 -7.61489908 35.84393912 -7.61177635 30.8623333 C-7.61229103 28.46726352 -7.61755601 26.07219001 -7.62758827 23.67714119 C-7.63987896 20.33217802 -7.63320508 16.98777597 -7.62158203 13.64282227 C-7.62922577 12.64687042 -7.63686951 11.65091858 -7.64474487 10.62478638 C-7.63773056 9.71482407 -7.63071625 8.80486176 -7.62348938 7.86732483 C-7.62365712 7.07625871 -7.62382486 6.28519258 -7.62399769 5.47015476 C-6.82683378 1.10869137 -4.09419329 0.04592717 0 0 Z " fill="#0E3C44" transform="translate(499.249267578125,446.580078125)"/>
<path d="M0 0 C0.83402344 -0.00064453 1.66804688 -0.00128906 2.52734375 -0.00195312 C3.39488281 0.01802734 4.26242187 0.03800781 5.15625 0.05859375 C6.02378906 0.05150391 6.89132812 0.04441406 7.78515625 0.03710938 C14.06965584 0.10024577 14.06965584 0.10024577 16.26051331 1.57868958 C18.39108157 4.50557436 18.02780138 6.99400403 18.02514648 10.57861328 C18.02891296 11.29611252 18.03267944 12.01361176 18.03656006 12.75285339 C18.04299528 14.3111859 18.04265988 15.86955766 18.03637505 17.42789078 C18.02726296 19.90083194 18.03749198 22.37301499 18.05299377 24.84591675 C18.09307411 31.87675771 18.09430588 38.90754037 18.09204102 45.93847656 C18.09198968 50.24094441 18.11128121 54.54300703 18.14137459 58.84536362 C18.15213773 61.26999573 18.14010247 63.6938328 18.12754822 66.11843872 C18.14908418 75.24443933 18.52005812 83.03643928 25.00390625 90.02734375 C29.95764771 92.77050544 35.17129436 92.15235418 40.65625 91.49609375 C45.82670148 89.40977122 47.7175518 86.39800848 49.8203125 81.46990967 C51.4441587 75.69313847 51.18529613 69.70381099 51.1421051 63.74652481 C51.12470598 61.27463519 51.13242074 58.80390056 51.1463623 56.33200073 C51.17157005 51.09495069 51.16620621 45.85817968 51.15625 40.62109375 C51.14471809 34.52849318 51.1457949 28.43645809 51.18031311 22.34392929 C51.1874123 19.90898702 51.17073374 17.47494099 51.15319824 15.04006958 C51.158903 13.55291252 51.16571875 12.06575917 51.17382812 10.57861328 C51.17064575 9.28005402 51.16746338 7.98149475 51.16418457 6.64358521 C51.65625 3.49609375 51.65625 3.49609375 53.55871582 1.57769775 C55.85308178 0.39459646 57.27645279 0.10993158 59.84375 0.09765625 C60.62492187 0.09378906 61.40609375 0.08992188 62.2109375 0.0859375 C63.01789063 0.09753906 63.82484375 0.10914063 64.65625 0.12109375 C65.46320313 0.10949219 66.27015625 0.09789062 67.1015625 0.0859375 C67.88273437 0.08980469 68.66390625 0.09367187 69.46875 0.09765625 C70.17644531 0.10104004 70.88414062 0.10442383 71.61328125 0.10791016 C74.43174474 0.64344517 75.62804191 1.44526769 77.65625 3.49609375 C78.06025238 6.03853676 78.20373615 8.15448339 78.17382812 10.69873047 C78.1808374 11.42931168 78.18784668 12.15989288 78.19506836 12.91261292 C78.21270363 15.33405358 78.20099487 17.75432808 78.1875 20.17578125 C78.19019625 21.86671166 78.19407978 23.55764056 78.19909668 25.24856567 C78.20500158 28.80127654 78.19640793 32.3535858 78.17773438 35.90625 C78.15511787 40.4262193 78.16795016 44.94522941 78.19202423 49.46516228 C78.20660517 52.96400936 78.20181758 56.46263624 78.19151306 59.96149063 C78.18887043 61.62539919 78.19202735 63.28932866 78.20143127 64.95321274 C78.26660735 79.74698603 76.24866253 93.69469855 66.1015625 105.26953125 C57.15585829 113.70160651 46.25717703 115.67963327 34.46875 115.74609375 C33.57349609 115.76671875 32.67824219 115.78734375 31.75585938 115.80859375 C20.7741581 115.87202596 11.91022034 112.83449763 3.65625 105.49609375 C-7.19014473 93.69571402 -7.95244054 79.46506733 -7.83984375 64.3046875 C-7.83999908 62.58407022 -7.84149372 60.8634526 -7.84425354 59.14283752 C-7.84562759 55.56503535 -7.83323641 51.98763898 -7.81030273 48.40991211 C-7.78172612 43.82669478 -7.7847209 39.24414041 -7.79739285 34.66087246 C-7.80434201 31.1203901 -7.79657274 27.58006122 -7.78413582 24.03959846 C-7.77962749 22.34872081 -7.77927911 20.65782667 -7.78320122 18.96694756 C-7.78611093 16.61230338 -7.76962601 14.25858041 -7.74780273 11.90405273 C-7.75230438 11.20949982 -7.75680603 10.5149469 -7.76144409 9.79934692 C-7.67161806 3.96777872 -6.30555403 -0.0153501 0 0 Z " fill="#0D3B44" transform="translate(392.34375,445.50390625)"/>
<path d="M0 0 C2 1.125 2 1.125 3 3 C2.80770384 8.60062558 0.29680572 11.40457445 -3.5 15.1875 C-4.60278468 16.33090411 -5.70301886 17.47677321 -6.80078125 18.625 C-7.34557129 19.1921875 -7.89036133 19.759375 -8.45166016 20.34375 C-11.44000581 23.54036573 -14.12281205 26.98367132 -16.859375 30.39453125 C-18.97517882 32.96978882 -21.17975721 35.42384918 -23.4375 37.875 C-28.68164865 43.61947379 -33.33420415 49.78543267 -38 56 C-34.38696902 61.145832 -30.49473362 65.63201406 -25.9921875 70.015625 C-23.50906106 72.48901369 -21.2405331 75.10853143 -18.953125 77.76171875 C-13.53412924 83.97188789 -7.89094375 89.99141837 -2.25 96 C-1.61715088 96.67474365 -0.98430176 97.3494873 -0.33227539 98.04467773 C0.91130215 99.36901331 2.15684572 100.69150605 3.40454102 102.01196289 C3.97358154 102.6177417 4.54262207 103.22352051 5.12890625 103.84765625 C5.63494385 104.38398682 6.14098145 104.92031738 6.66235352 105.47290039 C8 107 8 107 10 110 C9.48275862 113.51724138 9.48275862 113.51724138 8 115 C4.08324407 116.06141096 0.92250941 116.04663112 -3 115 C-8.05861727 111.53249432 -12.02308022 106.61475435 -16 102 C-16.63421875 101.28972656 -17.2684375 100.57945312 -17.921875 99.84765625 C-18.98385709 98.64635472 -20.03321358 97.43378547 -21.0703125 96.2109375 C-23.76010921 93.12910564 -26.57466249 90.16871007 -29.375 87.1875 C-34.24320386 81.99116538 -38.85239021 76.67863491 -43.29296875 71.109375 C-44.97675198 68.9533522 -44.97675198 68.9533522 -47 67 C-47.00586624 67.55710159 -47.01173248 68.11420319 -47.01777649 68.68818665 C-47.08164414 74.47955461 -47.16604596 80.27036344 -47.26245117 86.0612793 C-47.29573322 88.22331375 -47.32375485 90.38543577 -47.34643555 92.54760742 C-47.37992108 95.65321218 -47.432234 98.75801198 -47.48828125 101.86328125 C-47.49786613 103.31653557 -47.49786613 103.31653557 -47.50764465 104.79914856 C-47.52743881 105.6998558 -47.54723297 106.60056305 -47.56762695 107.52856445 C-47.57873001 108.32132278 -47.58983307 109.11408112 -47.60127258 109.93086243 C-48.09928185 112.51520865 -48.93095346 113.41567873 -51 115 C-53.41015625 115.36328125 -53.41015625 115.36328125 -56.0625 115.3125 C-57.37927734 115.30669922 -57.37927734 115.30669922 -58.72265625 115.30078125 C-61 115 -61 115 -63 113 C-63.24050903 110.93722534 -63.24050903 110.93722534 -63.22705078 108.36669922 C-63.22689972 107.40585419 -63.22674866 106.44500916 -63.22659302 105.45504761 C-63.21627045 104.41542877 -63.20594788 103.37580994 -63.1953125 102.3046875 C-63.1924826 101.24210724 -63.18965271 100.17952698 -63.18673706 99.08474731 C-63.17551639 95.68138501 -63.15040837 92.27828314 -63.125 88.875 C-63.11497264 86.57161838 -63.10584637 84.26823264 -63.09765625 81.96484375 C-63.07727006 76.30971408 -63.0381246 70.65514953 -63 65 C-70.26 65 -77.52 65 -85 65 C-84.94779297 70.16269531 -84.94779297 70.16269531 -84.89453125 75.4296875 C-84.87115457 78.75243296 -84.8529272 82.07516937 -84.83520508 85.39794922 C-84.82009147 87.71244385 -84.79960004 90.02690974 -84.77368164 92.34130859 C-84.73741159 95.66250696 -84.72029956 98.98332768 -84.70703125 102.3046875 C-84.69154739 103.34430634 -84.67606354 104.38392517 -84.66011047 105.45504761 C-84.65977058 106.89631516 -84.65977058 106.89631516 -84.65942383 108.36669922 C-84.65276199 109.21497284 -84.64610016 110.06324646 -84.63923645 110.93722534 C-84.75828842 111.61794098 -84.87734039 112.29865662 -85 113 C-87.94083564 114.96055709 -88.68127952 115.31214545 -92 115.375 C-92.680625 115.40335938 -93.36125 115.43171875 -94.0625 115.4609375 C-96.86401346 114.79444841 -97.50404644 113.40297038 -99 111 C-99.38031673 108.84512997 -99.38031673 108.84512997 -99.38768005 106.47703552 C-99.39758469 105.57555786 -99.40748932 104.6740802 -99.41769409 103.74528503 C-99.41319244 102.76385025 -99.4086908 101.78241547 -99.40405273 100.77124023 C-99.41091599 99.73184296 -99.41777924 98.69244568 -99.42485046 97.62155151 C-99.44316161 94.18376025 -99.43927539 90.74642334 -99.43359375 87.30859375 C-99.43815279 84.92252961 -99.44345753 82.53646678 -99.44947815 80.15040588 C-99.45841725 75.14945134 -99.45597613 70.14865644 -99.44604492 65.14770508 C-99.43454231 58.72904574 -99.45478304 52.31093547 -99.48396206 45.89234829 C-99.50227685 40.96564721 -99.50204122 36.03907893 -99.49632454 31.11235237 C-99.49617081 28.74519136 -99.50225742 26.37802163 -99.51461601 24.01089287 C-99.52943827 20.70669587 -99.51891366 17.40352924 -99.50170898 14.09936523 C-99.51137695 13.11590622 -99.52104492 12.1324472 -99.53100586 11.1191864 C-99.52117172 10.22052856 -99.51133759 9.32187073 -99.50120544 8.39598083 C-99.50099616 7.61488669 -99.50078688 6.83379255 -99.50057125 6.02902889 C-99 4 -99 4 -97.19133091 2.2486887 C-94.00497877 0.43300587 -91.59653739 0.60765047 -88 1 C-85.76878283 2.60866598 -85.08354991 3.48563604 -84.63923645 6.22099304 C-84.64589828 7.08481094 -84.65256012 7.94862885 -84.65942383 8.83862305 C-84.65965042 9.8194133 -84.65987701 10.80020355 -84.66011047 11.81071472 C-84.67559433 12.86704605 -84.69107819 13.92337738 -84.70703125 15.01171875 C-84.71127609 16.09508011 -84.71552094 17.17844147 -84.71989441 18.29463196 C-84.73670431 21.75917277 -84.77436152 25.22313462 -84.8125 28.6875 C-84.82754381 31.03449682 -84.84123274 33.38150274 -84.85351562 35.72851562 C-84.88406514 41.48608028 -84.94278416 47.24239111 -85 53 C-77.74 53 -70.48 53 -63 53 C-63.02320313 49.48601562 -63.04640625 45.97203125 -63.0703125 42.3515625 C-63.08589675 38.95931357 -63.09804849 35.56706859 -63.10986328 32.17480469 C-63.11993924 29.81183089 -63.13360029 27.44886961 -63.15087891 25.0859375 C-63.17505724 21.69528112 -63.18646699 18.30478916 -63.1953125 14.9140625 C-63.20563507 13.85256989 -63.21595764 12.79107727 -63.22659302 11.69741821 C-63.22681961 10.22611954 -63.22681961 10.22611954 -63.22705078 8.72509766 C-63.231492 7.85905914 -63.23593323 6.99302063 -63.24050903 6.10073853 C-63 4 -63 4 -61 2 C-58.6875 1.76953125 -58.6875 1.76953125 -56 1.8125 C-54.6696875 1.82216797 -54.6696875 1.82216797 -53.3125 1.83203125 C-51 2 -51 2 -49 3 C-49 18.18 -49 33.36 -49 49 C-48.34 49 -47.68 49 -47 49 C-46.71946777 48.41009277 -46.43893555 47.82018555 -46.14990234 47.21240234 C-44.34665982 43.74297903 -41.97412474 40.74104925 -39.625 37.625 C-39.09551758 36.92036621 -38.56603516 36.21573242 -38.02050781 35.48974609 C-33.4901111 29.52369798 -28.68456129 23.83874948 -23.7578125 18.19921875 C-21.27940109 15.35372991 -18.94049333 12.41770719 -16.625 9.4375 C-8.10662499 -1.22364151 -8.10662499 -1.22364151 0 0 Z " fill="#123D45" transform="translate(365,445)"/>
<path d="M0 0 C1.35931641 -0.01546875 1.35931641 -0.01546875 2.74609375 -0.03125 C6.65026813 0.70518234 8.53799355 1.88218306 11.5625 4.5 C13.68855328 7.66095955 15.33164115 11.017654 17 14.4375 C18.05053458 16.51835372 19.10132825 18.59907665 20.15234375 20.6796875 C20.70390137 21.78538086 21.25545898 22.89107422 21.82373047 24.03027344 C24.53877583 29.44816513 27.32067048 34.83109624 30.10577393 40.21322632 C31.06316145 42.06377853 32.01865303 43.91530188 32.97412109 45.7668457 C38.20102269 55.87975306 43.6038525 65.89143865 49.10694885 75.85658264 C50.65530098 78.66853528 52.1938337 81.48569466 53.73022461 84.30419922 C54.26288437 85.28121796 54.79554413 86.25823669 55.34434509 87.26486206 C55.74633621 88.00245758 56.14832733 88.7400531 56.5625 89.5 C56.57129936 87.89387093 56.57129936 87.89387093 56.58027649 86.2552948 C56.63743366 76.17552164 56.71015833 66.09596568 56.79821491 56.01641369 C56.84298548 50.83411901 56.88222676 45.65190416 56.90893555 40.46948242 C56.93490193 35.47025134 56.97525674 30.4713264 57.02568626 25.47228432 C57.0424002 23.56290806 57.0538862 21.65347879 57.06011391 19.74403954 C57.06970594 17.07406727 57.09770561 14.40488624 57.13012695 11.73510742 C57.12797432 10.54504089 57.12797432 10.54504089 57.1257782 9.33093262 C57.2172565 4.02133366 57.2172565 4.02133366 58.87858582 1.51264954 C61.81951309 -0.25592553 64.23356899 0.09823246 67.5625 0.5 C70.25160217 1.90724182 70.25160217 1.90724182 72.5625 4.5 C73.30459643 7.8018547 73.21450131 11.04992047 73.16186523 14.42163086 C73.16580795 15.42855484 73.16975067 16.43547882 73.17381287 17.47291565 C73.18052998 20.8040631 73.15134209 24.13384276 73.12109375 27.46484375 C73.1168439 29.77885167 73.11451511 32.09286384 73.11402893 34.40687561 C73.10785952 39.25834451 73.08514124 44.10935245 73.04956055 48.96069336 C73.00431327 55.17949955 72.98953611 61.39788763 72.98582363 67.61684322 C72.98139403 72.39608383 72.9660879 77.17523667 72.9469471 81.95443916 C72.93806686 84.24736369 72.9313359 86.54029758 72.92678642 88.83323479 C72.91774111 92.03864127 72.8953464 95.24367044 72.86889648 98.44897461 C72.86823181 99.39719086 72.86756714 100.3454071 72.86688232 101.32235718 C72.77224525 109.63479812 72.77224525 109.63479812 70.5625 113.5 C67.62711547 114.96769227 64.95472984 114.78669649 61.6875 114.875 C60.45257813 114.92398438 59.21765625 114.97296875 57.9453125 115.0234375 C54.5625 114.5 54.5625 114.5 52.53833008 112.30273438 C50.6626979 109.64213171 49.08245824 107.01111043 47.56640625 104.1328125 C47.01500977 103.09519775 46.46361328 102.05758301 45.89550781 100.98852539 C45.31124023 99.87856201 44.72697266 98.76859863 44.125 97.625 C42.86275506 95.25015941 41.59914212 92.87614452 40.33203125 90.50390625 C40.01321991 89.90656174 39.69440857 89.30921722 39.36593628 88.69377136 C36.45266833 83.2551356 33.39160355 77.90822707 30.3125 72.5625 C24.5153058 62.4441939 19.14134857 52.11986134 13.8125 41.75 C13.40801636 40.96408478 13.00353271 40.17816956 12.58679199 39.36843872 C11.43493791 37.12742069 10.28684835 34.88452746 9.140625 32.640625 C8.79334351 31.96356003 8.44606201 31.28649506 8.08825684 30.58891296 C6.72868907 27.91471703 5.51287706 25.35113119 4.5625 22.5 C4.55663376 23.62308563 4.55076752 24.74617126 4.54472351 25.90328979 C4.4875986 36.46900107 4.41489111 47.03450449 4.32678509 57.6000042 C4.28198959 63.03231204 4.24275393 68.46454329 4.21606445 73.89697266 C4.19012279 79.13609481 4.14978591 84.37492362 4.09931374 89.6138649 C4.08258295 91.6161752 4.07110753 93.6185363 4.06488609 95.62090683 C4.05531224 98.41799687 4.02733477 101.21432585 3.99487305 104.01123047 C3.99630814 104.84560638 3.99774323 105.6799823 3.9992218 106.53964233 C3.96122742 108.84274292 3.96122742 108.84274292 3.5625 112.5 C0.45212372 114.57358419 -0.43311252 114.79487123 -4 114.8125 C-4.78503906 114.82925781 -5.57007813 114.84601563 -6.37890625 114.86328125 C-7.05824219 114.74339844 -7.73757812 114.62351562 -8.4375 114.5 C-10.52177753 111.37358371 -10.69048173 110.66020216 -10.71165466 107.10401917 C-10.72162979 106.20536133 -10.73160492 105.30670349 -10.74188232 104.3808136 C-10.742547 103.39735458 -10.74321167 102.41389557 -10.74389648 101.40063477 C-10.75222 100.36298981 -10.76054352 99.32534485 -10.76911926 98.2562561 C-10.79326253 94.81793494 -10.80199615 91.37980325 -10.80859375 87.94140625 C-10.81755582 85.55630942 -10.82667758 83.17121319 -10.83595276 80.78611755 C-10.85245642 75.78342317 -10.86014556 70.78079584 -10.86303711 65.77807617 C-10.8684264 59.36054629 -10.90612397 52.94364422 -10.95178127 46.52629185 C-10.98148709 41.59956039 -10.98875924 36.67298139 -10.98976326 31.74616814 C-10.99397738 29.37981219 -11.00645902 27.01345627 -11.02728081 24.64718819 C-11.05406363 21.340572 -11.04940833 18.03542813 -11.03686523 14.72875977 C-11.05169952 13.74732498 -11.06653381 12.7658902 -11.08181763 11.75471497 C-11.01006372 5.12967151 -11.01006372 5.12967151 -8.06776428 1.89390564 C-5.13062511 0.33737199 -3.30989133 -0.03755905 0 0 Z " fill="#153E47" transform="translate(169.4375,445.5)"/>
<path d="M0 0 C10.4483246 12.87413575 11.45101115 28.18861313 11.35302734 44.19458008 C11.3538601 45.88480243 11.35608233 47.57502458 11.35957336 49.26524353 C11.36448995 52.88006703 11.36049229 56.49472727 11.34955978 60.10953712 C11.33306938 65.84048146 11.34172529 71.57122563 11.35440063 77.3021698 C11.38438893 92.56351028 11.38309902 107.82481301 11.36414778 123.08616799 C11.35177114 133.12805207 11.3537957 143.16970636 11.38253558 153.21156424 C11.39766056 158.89327418 11.39044917 164.57435518 11.36582541 170.25602496 C11.35566453 173.80886761 11.36654471 177.36142998 11.38294029 180.91423988 C11.38635492 182.54428103 11.3814558 184.17436761 11.36697197 185.80434799 C11.27302554 197.08771472 13.10156313 206.41647943 17 217 C17.27876165 217.81990827 17.55752331 218.63981653 17.84473228 219.4845705 C23.82302183 236.6158561 34.3210555 251.1253774 50.5625 259.375 C51.696875 259.91125 52.83125 260.4475 54 261 C51.03954189 262.28652007 49.94543746 261.9793437 46.86328125 260.8125 C39.65482089 257.13293387 33.07572282 253.42811671 27 248 C26.31421875 247.39542969 25.6284375 246.79085937 24.921875 246.16796875 C9.82154496 232.01861369 1.85218892 210.32482596 0.9029969 189.91411865 C0.85977639 187.81847119 0.84462577 185.72473418 0.84178162 183.62864685 C0.83684364 182.83691497 0.83190566 182.0451831 0.82681805 181.22945935 C0.81158723 178.60406531 0.803122 175.97869543 0.79467773 173.35327148 C0.78508784 171.46034029 0.77507712 169.56741118 0.76467896 167.67448425 C0.73774418 162.5553592 0.71667305 157.43622504 0.69667697 152.31706882 C0.67474658 146.95990275 0.64739252 141.6027644 0.62062073 136.24562073 C0.57078893 126.10988581 0.52581496 115.97413543 0.48259836 105.83837038 C0.43314449 94.29543672 0.37825668 82.75253089 0.32291877 71.20962417 C0.20924483 47.47310876 0.10237425 23.73656664 0 0 Z " fill="#F5A4A9" transform="translate(272,106)"/>
<path d="M0 0 C18.1883638 7.08047019 31.5242423 19.72376743 39.875 37.38671875 C46.71448177 53.27426494 47.30021611 69.0466001 47.22705078 86.05249023 C47.22648526 87.91674798 47.22680597 89.78100618 47.22793579 91.64526367 C47.22850482 96.65871831 47.21682413 101.67207538 47.20278788 106.68550754 C47.19020477 111.94251927 47.18910408 117.19953375 47.18673706 122.45655823 C47.18054442 132.39025886 47.16416387 142.32391497 47.14403808 152.25759608 C47.12160975 163.57573926 47.11066828 174.89388468 47.10064721 186.2120446 C47.07979547 209.47472099 47.04466299 232.73735799 47 256 C35.58003534 244.58003534 36.85271255 219.52832123 36.84228516 204.76074219 C36.83760566 203.25638178 36.83246026 201.75202277 36.82688904 200.24766541 C36.81568698 197.02847174 36.80721525 193.8092869 36.80076981 190.59008026 C36.78999692 185.48549557 36.76972869 180.38097497 36.74765015 175.27642822 C36.68603445 160.76781151 36.63178128 146.25920017 36.59863281 131.75048828 C36.58020977 123.72161618 36.55118334 115.69285339 36.5106281 107.66406178 C36.48969616 103.42771405 36.47412054 99.19150316 36.47182083 94.95510101 C36.46965227 90.96581369 36.45356182 86.9768118 36.42743111 82.98761177 C36.42032137 81.53616733 36.41809586 80.08468799 36.42153358 78.63323021 C36.44136136 68.65758112 35.24892528 59.67256372 33 50 C32.78759989 49.01540676 32.57519978 48.03081352 32.3563633 47.01638412 C28.81360018 31.03161326 19.35489783 17.25307462 7.0546875 6.76171875 C4.56345531 4.62570027 2.28198805 2.35560057 0 0 Z " fill="#F5A1A2" transform="translate(286,61)"/>
<path d="M0 0 C1.0209375 -0.01160156 1.0209375 -0.01160156 2.0625 -0.0234375 C4.59357306 0.49706543 5.38633647 1.38010923 7 3.375 C7.36914349 5.29026318 7.36914349 5.29026318 7.36076355 7.4941864 C7.36488754 8.33131165 7.36901154 9.16843689 7.3732605 10.03092957 C7.36247467 10.94586685 7.35168884 11.86080414 7.34057617 12.8034668 C7.34101425 13.76950836 7.34145233 14.73554993 7.34190369 15.73086548 C7.3398111 18.92885441 7.31645761 22.12632123 7.29296875 25.32421875 C7.28737447 27.53953261 7.28310358 29.75485017 7.28010559 31.97016907 C7.26864361 37.80476097 7.23916462 43.63912932 7.20599365 49.47363281 C7.17532203 55.42575048 7.16160647 61.37790423 7.14648438 67.33007812 C7.11429635 79.01181704 7.06308353 90.69338994 7 102.375 C7.6241832 102.37277939 8.24836639 102.37055878 8.89146423 102.36827087 C15.36342804 102.3462192 21.83538125 102.3310939 28.30737305 102.32006836 C30.72567172 102.31502651 33.14396733 102.30819322 35.56225586 102.29956055 C39.02979283 102.28748843 42.49728966 102.28177037 45.96484375 102.27734375 C47.05337143 102.27218246 48.14189911 102.26702118 49.26341248 102.26170349 C50.76485558 102.26159019 50.76485558 102.26159019 52.29663086 102.26147461 C53.62566689 102.25814369 53.62566689 102.25814369 54.98155212 102.25474548 C57 102.375 57 102.375 58 103.375 C58.47404645 110.72271994 58.47404645 110.72271994 56.83630371 112.97622681 C54.2728733 114.92887643 52.49443616 114.75577782 49.29101562 114.76318359 C48.11970093 114.77264008 46.94838623 114.78209656 45.74157715 114.7918396 C44.47591919 114.78576691 43.21026123 114.77969421 41.90625 114.7734375 C40.60804321 114.77630768 39.30983643 114.77917786 37.97229004 114.78213501 C35.22507009 114.78655675 32.47814293 114.78013259 29.73095703 114.76611328 C26.21003159 114.74902092 22.68979217 114.75886298 19.16889191 114.77683067 C15.81045629 114.79027957 12.45220511 114.78086264 9.09375 114.7734375 C7.82809204 114.77951019 6.56243408 114.78558289 5.25842285 114.7918396 C4.08710815 114.78238312 2.91579346 114.77292664 1.70898438 114.76318359 C0.16035706 114.75960342 0.16035706 114.75960342 -1.41955566 114.75595093 C-4.46300306 114.30664687 -5.14359188 113.76440767 -7 111.375 C-7.37752342 109.32756042 -7.37752342 109.32756042 -7.38095093 106.93432617 C-7.3894104 106.02580902 -7.39786987 105.11729187 -7.40658569 104.1812439 C-7.400513 103.1868631 -7.39444031 102.1924823 -7.38818359 101.16796875 C-7.39344055 100.11896393 -7.39869751 99.06995911 -7.40411377 97.98916626 C-7.41734313 94.51346043 -7.40856504 91.03821068 -7.3984375 87.5625 C-7.40045738 85.15258699 -7.4033681 82.74267458 -7.40713501 80.33276367 C-7.41156236 75.27874947 -7.40511395 70.22489419 -7.39111328 65.17089844 C-7.37402137 58.68390759 -7.38386033 52.19728907 -7.40183067 45.71031189 C-7.41265731 40.73300355 -7.40922728 35.75578387 -7.4014473 30.7784729 C-7.3994422 28.38619951 -7.40191536 25.99391813 -7.40888596 23.60165405 C-7.41648184 20.26156202 -7.40492182 16.92207786 -7.38818359 13.58203125 C-7.39425629 12.58765045 -7.40032898 11.59326965 -7.40658569 10.5687561 C-7.39812622 9.66023895 -7.38966675 8.7517218 -7.38095093 7.81567383 C-7.37981985 7.02590652 -7.37868877 6.23613922 -7.37752342 5.42243958 C-6.60601163 1.23826533 -4.00496425 -0.04551096 0 0 Z " fill="#0D3941" transform="translate(47,445.625)"/>
<path d="M0 0 C2.15617466 1.24310207 2.15617466 1.24310207 4 3 C4.50057125 5.06585026 4.50057125 5.06585026 4.50120544 7.48536682 C4.51103958 8.40374329 4.52087372 9.32211975 4.53100586 10.26832581 C4.52133789 11.27362839 4.51166992 12.27893097 4.50170898 13.31469727 C4.50711197 14.37506195 4.51251495 15.43542664 4.51808167 16.52792358 C4.53061291 20.04103302 4.51404913 23.55333006 4.49609375 27.06640625 C4.49624862 29.50113468 4.49773566 31.93586335 4.50050354 34.37059021 C4.50188947 39.47593061 4.48929571 44.58099074 4.46655273 49.6862793 C4.43815285 56.24288585 4.4409071 62.79902699 4.45364285 69.35566807 C4.46058444 74.38356021 4.45282835 79.41134402 4.44038582 84.43922234 C4.4358576 86.85743736 4.4355464 89.27566397 4.43945122 91.69388008 C4.4423489 95.06773003 4.42592572 98.44092935 4.40405273 101.81469727 C4.40855438 102.82202408 4.41305603 103.82935089 4.41769409 104.86720276 C4.40778946 105.7827594 4.39788483 106.69831604 4.38768005 107.64161682 C4.38525016 108.43968026 4.38282026 109.2377437 4.38031673 110.05999088 C4.25481221 110.70019389 4.12930769 111.3403969 4 112 C1.00261059 113.99825961 0.36652492 114.27550398 -3 114.25 C-3.680625 114.25515625 -4.36125 114.2603125 -5.0625 114.265625 C-7 114 -7 114 -10 112 C-10.38031673 110.05999088 -10.38031673 110.05999088 -10.38768005 107.64161682 C-10.39758469 106.72606018 -10.40748932 105.81050354 -10.41769409 104.86720276 C-10.41319244 103.85987595 -10.4086908 102.85254913 -10.40405273 101.81469727 C-10.41091599 100.7560849 -10.41777924 99.69747253 -10.42485046 98.60678101 C-10.44321289 95.09318788 -10.43926739 91.58003725 -10.43359375 88.06640625 C-10.43815108 85.63264316 -10.4434553 83.19888136 -10.44947815 80.76512146 C-10.4584279 75.65805848 -10.45596498 70.55115171 -10.44604492 65.4440918 C-10.43455444 58.88861658 -10.45475913 52.33367992 -10.48396206 45.77827549 C-10.50227929 40.75034643 -10.50204049 35.72254747 -10.49632454 30.69459343 C-10.49617077 28.27719301 -10.50226081 25.85978408 -10.51461601 23.44241524 C-10.52943893 20.06616237 -10.51891219 16.69091786 -10.50170898 13.31469727 C-10.51137695 12.30939468 -10.52104492 11.3040921 -10.53100586 10.26832581 C-10.52117172 9.34994934 -10.51133759 8.43157288 -10.50120544 7.48536682 C-10.50099616 6.68692636 -10.50078688 5.88848589 -10.50057125 5.06585026 C-10 3 -10 3 -8.15617466 1.24310207 C-5.22915731 -0.4444149 -3.32908285 -0.41613536 0 0 Z " fill="#0E3A43" transform="translate(130,446)"/>
<path d="M0 0 C4.5478125 -0.1546875 4.5478125 -0.1546875 9.1875 -0.3125 C10.13391357 -0.35802002 11.08032715 -0.40354004 12.05541992 -0.45043945 C16.35842805 -0.52123515 18.4440426 -0.3812078 22.08203125 2.11328125 C24.36461439 5.54877808 24.6147776 7.40626553 24.5 11.5 C24.4896875 12.6034375 24.479375 13.706875 24.46875 14.84375 C23.81458054 19.24849105 22.11444928 21.88555072 19 25 C17.02880859 25.22705078 17.02880859 25.22705078 14.6484375 25.1953125 C13.49867432 25.18781982 13.49867432 25.18781982 12.32568359 25.18017578 C11.35195801 25.16196777 10.37823242 25.14375977 9.375 25.125 C6.28125 25.08375 3.1875 25.0425 0 25 C0 16.75 0 8.5 0 0 Z " fill="#F9FBFA" transform="translate(518,471)"/>
<path d="M0 0 C1.19882812 0.01450195 1.19882812 0.01450195 2.421875 0.02929688 C3.659375 0.06700195 3.659375 0.06700195 4.921875 0.10546875 C6.18257813 0.12577148 6.18257813 0.12577148 7.46875 0.14648438 C9.53673438 0.18173411 11.60438771 0.23553855 13.671875 0.29296875 C13.671875 0.62296875 13.671875 0.95296875 13.671875 1.29296875 C12.47949219 1.33035156 11.28710938 1.36773437 10.05859375 1.40625 C8.492156 1.47190907 6.92575116 1.53835643 5.359375 1.60546875 C4.57369141 1.62802734 3.78800781 1.65058594 2.97851562 1.67382812 C1.8425293 1.72700195 1.8425293 1.72700195 0.68359375 1.78125 C-0.36115112 1.82052612 -0.36115112 1.82052612 -1.42700195 1.8605957 C-4.00106949 2.44601674 -4.7484187 3.16619877 -6.328125 5.29296875 C-6.80411527 8.4231453 -6.80411527 8.4231453 -6.76049805 12.05932617 C-6.7706897 12.74251419 -6.78088135 13.42570221 -6.79138184 14.1295929 C-6.82155678 16.38595736 -6.8307842 18.64189762 -6.83984375 20.8984375 C-6.85668719 22.4635815 -6.87483698 24.02871195 -6.89424133 25.59382629 C-6.94178427 29.71194218 -6.97156564 33.83000313 -6.99768066 37.94830322 C-7.02746468 42.15119277 -7.07400236 46.35389289 -7.11914062 50.55664062 C-7.20522251 58.80199037 -7.27254583 67.04735726 -7.328125 75.29296875 C-7.658125 75.29296875 -7.988125 75.29296875 -8.328125 75.29296875 C-8.42074068 65.9572137 -8.49184678 56.62161639 -8.53537369 47.28550243 C-8.55626283 42.95050537 -8.58460419 38.61582223 -8.62988281 34.28100586 C-8.673294 30.09887412 -8.69725211 25.91704461 -8.70763397 21.73470497 C-8.71503392 20.13784335 -8.72948422 18.54099857 -8.75104523 16.94426537 C-8.78001785 14.71011787 -8.7840838 12.47722456 -8.78222656 10.24291992 C-8.79555023 8.33430428 -8.79555023 8.33430428 -8.80914307 6.38713074 C-8.328125 3.29296875 -8.328125 3.29296875 -6.43139648 1.37988281 C-4.06742418 0.15824558 -2.64579351 -0.05669558 0 0 Z " fill="#395E64" transform="translate(452.328125,445.70703125)"/>
<path d="M0 0 C1.17042847 0.0314209 1.17042847 0.0314209 2.36450195 0.06347656 C3.21206055 0.07636719 4.05961914 0.08925781 4.93286133 0.10253906 C5.81393555 0.13605469 6.69500977 0.16957031 7.6027832 0.20410156 C8.49545898 0.22214844 9.38813477 0.24019531 10.30786133 0.25878906 C12.51141824 0.30592397 14.71280922 0.371695 16.9152832 0.45410156 C16.9152832 0.78410156 16.9152832 1.11410156 16.9152832 1.45410156 C15.72290039 1.49148438 14.53051758 1.52886719 13.30200195 1.56738281 C11.73556421 1.63304188 10.16915936 1.69948925 8.6027832 1.76660156 C7.81709961 1.78916016 7.03141602 1.81171875 6.22192383 1.83496094 C5.0859375 1.88813477 5.0859375 1.88813477 3.92700195 1.94238281 C2.88225708 1.98165894 2.88225708 1.98165894 1.81640625 2.02172852 C-0.68994506 2.59174883 -1.5769161 3.38317408 -3.0847168 5.45410156 C-3.58626702 7.66845227 -3.58626702 7.66845227 -3.59643555 10.12207031 C-3.63188477 11.01474609 -3.66733398 11.90742188 -3.70385742 12.82714844 C-3.72641602 13.75591797 -3.74897461 14.6846875 -3.7722168 15.64160156 C-3.80637695 16.58197266 -3.84053711 17.52234375 -3.87573242 18.49121094 C-3.95819898 20.81205549 -4.02735083 23.13252304 -4.0847168 25.45410156 C-4.4147168 25.45410156 -4.7447168 25.45410156 -5.0847168 25.45410156 C-5.17196385 22.03759637 -5.22519005 18.62137843 -5.2722168 15.20410156 C-5.29735352 14.23601562 -5.32249023 13.26792969 -5.34838867 12.27050781 C-5.35805664 11.3359375 -5.36772461 10.40136719 -5.37768555 9.43847656 C-5.393396 8.57963867 -5.40910645 7.72080078 -5.42529297 6.8359375 C-4.90982538 3.23098997 -3.71485165 0.80918422 0 0 Z " fill="#42656C" transform="translate(390.084716796875,445.5458984375)"/>
<path d="M0 0 C0.66 0.33 1.32 0.66 2 1 C-3.94 6.94 -9.88 12.88 -16 19 C-16 14.07240655 -12.31920971 11.40001444 -9 8 C-6.39339425 5.5914226 -3.71510115 3.28465829 -1 1 C-0.67 0.67 -0.34 0.34 0 0 Z " fill="#A95898" transform="translate(198,39)"/>
<path d="M0 0 C4.49797113 1.68673918 8.72886302 3.81673892 13 6 C13 7.65 13 9.3 13 11 C8.30840284 7.61227103 3.9700218 4.21814817 0 0 Z " fill="#EBA8C7" transform="translate(286,61)"/>
<path d="M0 0 C0.66 0.33 1.32 0.66 2 1 C-1.96 4.96 -5.92 8.92 -10 13 C-10 9.28115772 -9.1259934 8.63852271 -6.6875 5.9375 C-5.76517578 4.89916016 -5.76517578 4.89916016 -4.82421875 3.83984375 C-3 2 -3 2 0 0 Z " fill="#F9E7C8" transform="translate(470,236)"/>
<path d="M0 0 C3.63 1.65 7.26 3.3 11 5 C5.86057616 6.28485596 4.62164416 5.22194431 0 3 C0 2.01 0 1.02 0 0 Z " fill="#F2BBA6" transform="translate(315,362)"/>
<path d="M0 0 C2.9719385 1.12451727 5.33440687 2.22293791 8 4 C7.67 4.99 7.34 5.98 7 7 C5.83040013 6.02433888 4.66438823 5.044375 3.5 4.0625 C2.8503125 3.51722656 2.200625 2.97195312 1.53125 2.41015625 C1.0259375 1.94480469 0.520625 1.47945312 0 1 C0 0.67 0 0.34 0 0 Z " fill="#EDBBD0" transform="translate(286,61)"/>
</svg>
